<svg viewBox="0 0 200 200"><path d="M 40 76 L 47.45 74.32 L 54.89 72.64 L 62.34 70.96 L 69.79 69.28 L 69.79 122.16 L 62.34 119.92 L 54.89 117.68 L 47.45 115.44 L 40 113.2 Z" fill="#2b374f" stroke="#f4f6ff" stroke-width="1.2" opacity="0.25" stroke-linejoin="round"></path><path d="M 69.79 69.28 L 80.63 67.01 L 91.47 64.74 L 102.31 66.85 L 113.16 70.22 L 124 72.21 L 124 118 L 113.16 120.91 L 102.31 123.83 L 91.47 125.57 L 80.63 123.86 L 69.79 122.16 Z" fill="#323f5c" stroke="#f4f6ff" stroke-width="1.2" opacity="0.25" stroke-linejoin="round"></path><path d="M 124 72.21 L 133 73.87 L 142 75.29 L 151 76.64 L 160 78 L 160 117.6 L 151 117.69 L 142 117.79 L 133 117.9 L 124 118 Z" fill="#384768" stroke="#f4f6ff" stroke-width="1.2" opacity="0.25" stroke-linejoin="round"></path><path d="M 59.8 115.3 Q 64.3 126 77.8 113.5 L 66.1 109.9 Z" fill="#1f283f" stroke="#f4f6ff" stroke-width="1.2" opacity="0.65"></path><path d="M 40 76 L 52 73.29 L 64 70.59 L 76 67.98 L 88 65.47 L 100 66.08 L 112 70.01 L 124 72.21 L 136 74.38 L 148 76.19 L 160 78 L 160 117.6 L 148 117.73 L 136 117.86 L 124 118 L 112 121.23 L 100 124.45 L 88 125.02 L 76 123.14 L 64 120.42 L 52 116.81 L 40 113.2 Z" fill="none" stroke="#f4f6ff" stroke-width="1.8"></path><polygon points="104 100 116.6 83.125 146 96 136.76 114.4 98.12 122.5" fill="#7a94c4" stroke="#1f283f" stroke-width="1.6" opacity="0.85" stroke-linejoin="round"></polygon><polyline points="104 100 116.6 83.125 146 96" fill="none" stroke="#f4f6ff" stroke-width="2" opacity="0.85" stroke-linejoin="round" stroke-linecap="round"></polyline><rect x="115.44" y="121.5" width="4" height="12" rx="1.6" fill="#5c6f93" stroke="#1f283f" stroke-width="1"></rect><rect x="100.94" y="131.5" width="30" height="14" rx="3.5" fill="#6e85b0" stroke="#1f283f" stroke-width="1.1"></rect><polygon points="100.94 131.5 94.34 138.5 100.94 145.5" fill="#c3cfe7" stroke="#1f283f" stroke-width="1"></polygon><polygon points="130.94 132.9 136.34 138.5 130.94 144.1" fill="#cfd1d9" opacity="0.75"></polygon><rect x="126.36000000000001" y="121.5" width="4" height="11" rx="1.6" fill="#5c6f93" stroke="#1f283f" stroke-width="1"></rect><rect x="112.96000000000001" y="130.5" width="28" height="12" rx="3" fill="#6e85b0" stroke="#1f283f" stroke-width="1.1"></rect><polygon points="112.96000000000001 130.5 106.80000000000001 136.5 112.96000000000001 142.5" fill="#c3cfe7" stroke="#1f283f" stroke-width="1"></polygon><polygon points="140.96 131.7 146 136.5 140.96 141.3" fill="#cfd1d9" opacity="0.75"></polygon></svg>
