<?xml version="1.0" encoding="UTF-8"?>
<svg viewBox="0 0 200 200"><path d="M 40 76 L 47.95 74.84 L 55.91 73.6 L 63.86 71.44 L 71.81 69.28 L 71.81 122.16 L 63.86 119.05 L 55.91 115.93 L 47.95 114.34 L 40 113.2 Z" fill="#2b374f" stroke="#f4f6ff" stroke-width="1.2" opacity="0.35" stroke-linejoin="round"></path><path d="M 71.81 69.28 L 84.36 66.14 L 96.91 65.72 L 109.45 69.9 L 122 72.21 L 122 118 L 109.45 121.37 L 96.91 124.75 L 84.36 124.52 L 71.81 122.16 Z" fill="#323f5c" stroke="#f4f6ff" stroke-width="1.2" opacity="0.35" stroke-linejoin="round"></path><path d="M 122 72.21 L 131.5 73.96 L 141 75.35 L 150.5 76.67 L 160 78 L 160 117.6 L 150.5 117.68 L 141 117.78 L 131.5 117.89 L 122 118 Z" fill="#384768" stroke="#f4f6ff" stroke-width="1.2" opacity="0.35" stroke-linejoin="round"></path><path d="M 58.7 115.3 Q 63.2 126 76.7 113.5 L 65 109.9 Z" fill="#1f283f" stroke="#f4f6ff" stroke-width="1.2" opacity="0.65"></path><path d="M 40 76 L 52 74.24 L 64 71.4 L 76 68.23 L 88 65.22 L 100 66.75 L 112 70.38 L 124 72.58 L 136 74.65 L 148 76.32 L 160 78 L 160 117.6 L 148 117.71 L 136 117.84 L 124 117.98 L 112 120.69 L 100 123.91 L 88 125.2 L 76 122.95 L 64 119.1 L 52 114.92 L 40 113.2 Z" fill="none" stroke="#f4f6ff" stroke-width="1.8"></path><rect x="31.6" y="89.5" width="8.4" height="12" rx="3" fill="#6e85b0" stroke="#1f283f" stroke-width="1.2"></rect><line x1="12" y1="95.5" x2="42" y2="94.3" stroke="#1f283f" stroke-width="2.2" stroke-linecap="round"></line><circle cx="12" cy="95.5" r="3" fill="#c3c5cc"></circle><rect x="31.6" y="98.5" width="8.4" height="12" rx="3" fill="#6e85b0" stroke="#1f283f" stroke-width="1.2"></rect><line x1="12" y1="104.5" x2="42" y2="103.3" stroke="#1f283f" stroke-width="2.2" stroke-linecap="round"></line><circle cx="12" cy="104.5" r="3" fill="#c3c5cc"></circle></svg>
