<?xml version="1.0" encoding="UTF-8"?>
<svg viewBox="0 0 200 200"><rect x="47.9" y="119.69" width="3.2" height="10" rx="1.2" fill="#5c6f93" stroke="#1f283f" stroke-width="0.9"></rect><rect x="42.5" y="108.625" width="14" height="18" rx="3.8500000000000005" fill="#6e85b0" stroke="#1f283f" stroke-width="1"></rect><polygon points="42.5 108.625 49.5 100.225 56.5 108.625" fill="#c3cfe7" stroke="#1f283f" stroke-width="1"></polygon><rect x="43.2" y="123.825" width="12.6" height="5.6000000000000005" fill="#cfd1d9" opacity="0.75"></rect><rect x="148.9" y="119.69" width="3.2" height="10" rx="1.2" fill="#5c6f93" stroke="#1f283f" stroke-width="0.9"></rect><rect x="143.5" y="108.625" width="14" height="18" rx="3.8500000000000005" fill="#6e85b0" stroke="#1f283f" stroke-width="1"></rect><polygon points="143.5 108.625 150.5 100.225 157.5 108.625" fill="#c3cfe7" stroke="#1f283f" stroke-width="1"></polygon><rect x="144.2" y="123.825" width="12.6" height="5.6000000000000005" fill="#cfd1d9" opacity="0.75"></rect><rect x="47.9" y="130.61" width="3.2" height="9" rx="1.2" fill="#5c6f93" stroke="#1f283f" stroke-width="0.9"></rect><rect x="43.5" y="107.825" width="12" height="16.8" rx="3.3000000000000003" fill="#6e85b0" stroke="#1f283f" stroke-width="1"></rect><polygon points="43.5 107.825 49.5 99.985 55.5 107.825" fill="#c3cfe7" stroke="#1f283f" stroke-width="1"></polygon><rect x="44.1" y="122.225" width="10.8" height="4.800000000000001" fill="#cfd1d9" opacity="0.75"></rect><rect x="148.9" y="130.61" width="3.2" height="9" rx="1.2" fill="#5c6f93" stroke="#1f283f" stroke-width="0.9"></rect><rect x="144.5" y="107.825" width="12" height="16.8" rx="3.3000000000000003" fill="#6e85b0" stroke="#1f283f" stroke-width="1"></rect><polygon points="144.5 107.825 150.5 99.985 156.5 107.825" fill="#c3cfe7" stroke="#1f283f" stroke-width="1"></polygon><rect x="145.1" y="122.225" width="10.8" height="4.800000000000001" fill="#cfd1d9" opacity="0.75"></rect></svg>
