<?xml version="1.0" encoding="UTF-8"?>
<svg viewBox="0 0 200 200"><path d="M 100 14 L 130.24 76 Q 128.28 86.94 126.32 94.24 Q 128.28 104.61 130.24 111.52 Q 128.84 119.01 127.44 124 Q 128.28 130.48 129.12 134.8 Q 124.64 143.01 120.16 148.48 Q 118.48 157.7 116.8 160 Q 100 182 83.2 160 Q 81.52 153.09 79.84 148.48 Q 75.36 140.27 70.88 134.8 Q 71.72 128.32 72.56 124 Q 71.16 116.51 69.76 111.52 Q 71.72 101.15 73.68 94.24 L 69.76 76 L 100 14 Z" fill="#2b374f" stroke="#f4f6ff" stroke-width="1.4" opacity="0.25" stroke-linejoin="round"></path><path d="M 69.76 76 L 130.24 76 Q 128.28 86.94 126.32 94.24 Q 128.28 104.61 130.24 111.52 Q 128.84 119.01 127.44 124 L 72.56 124 Q 71.16 116.51 69.76 111.52 Q 71.72 101.15 73.68 94.24 Q 71.72 83.3 69.76 76 Z" fill="#323f5c" stroke="#f4f6ff" stroke-width="1.4" opacity="0.25" stroke-linejoin="round"></path><path d="M 72.56 124 L 127.44 124 Q 128.28 130.48 129.12 134.8 Q 124.64 143.01 120.16 148.48 Q 118.48 157.7 116.8 160 Q 100 182 83.2 160 Q 81.52 153.09 79.84 148.48 Q 75.36 140.27 70.88 134.8 Q 71.72 128.32 72.56 124 Z" fill="#384768" stroke="#f4f6ff" stroke-width="1.4" opacity="0.25" stroke-linejoin="round"></path><path d="M 83.2 58 L 116.8 58 M 83.2 79 L 116.8 79 M 83.2 100 L 116.8 100 M 83.2 121 L 116.8 121 M 83.2 142 L 116.8 142" fill="none" stroke="#f4f6ff" stroke-width="1" opacity="0.55"></path><path d="M 100 14 L 130.24 76 Q 128.28 86.94 126.32 94.24 Q 128.28 104.61 130.24 111.52 Q 128.84 119.01 127.44 124 Q 128.28 130.48 129.12 134.8 Q 124.64 143.01 120.16 148.48 Q 118.48 157.7 116.8 160 Q 100 182 83.2 160 Q 81.52 153.09 79.84 148.48 Q 75.36 140.27 70.88 134.8 Q 71.72 128.32 72.56 124 Q 71.16 116.51 69.76 111.52 Q 71.72 101.15 73.68 94.24 L 69.76 76 L 100 14 Z" fill="none" stroke="#f4f6ff" stroke-width="1.8"></path><polygon points="72 104 22 86 42 128 62 118.4" fill="#7a94c4" stroke="#1f283f" stroke-width="1.6" opacity="0.85" stroke-linejoin="round"></polygon><polygon points="128 104 178 86 158 128 138 118.4" fill="#7a94c4" stroke="#1f283f" stroke-width="1.6" opacity="0.85" stroke-linejoin="round"></polygon><polyline points="72 104 22 86 62 118.4" fill="none" stroke="#f4f6ff" stroke-width="2.2" opacity="0.85" stroke-linejoin="round" stroke-linecap="round"></polyline><rect x="47.9" y="119.69" width="3.2" height="10" rx="1.2" fill="#5c6f93" stroke="#1f283f" stroke-width="0.9"></rect><rect x="42.5" y="108.625" width="14" height="18" rx="3.8500000000000005" fill="#6e85b0" stroke="#1f283f" stroke-width="1"></rect><polygon points="42.5 108.625 49.5 100.225 56.5 108.625" fill="#c3cfe7" stroke="#1f283f" stroke-width="1"></polygon><rect x="43.2" y="123.825" width="12.6" height="5.6000000000000005" fill="#cfd1d9" opacity="0.75"></rect><rect x="148.9" y="119.69" width="3.2" height="10" rx="1.2" fill="#5c6f93" stroke="#1f283f" stroke-width="0.9"></rect><rect x="143.5" y="108.625" width="14" height="18" rx="3.8500000000000005" fill="#6e85b0" stroke="#1f283f" stroke-width="1"></rect><polygon points="143.5 108.625 150.5 100.225 157.5 108.625" fill="#c3cfe7" stroke="#1f283f" stroke-width="1"></polygon><rect x="144.2" y="123.825" width="12.6" height="5.6000000000000005" fill="#cfd1d9" opacity="0.75"></rect><rect x="47.9" y="130.61" width="3.2" height="9" rx="1.2" fill="#5c6f93" stroke="#1f283f" stroke-width="0.9"></rect><rect x="43.5" y="107.825" width="12" height="16.8" rx="3.3000000000000003" fill="#6e85b0" stroke="#1f283f" stroke-width="1"></rect><polygon points="43.5 107.825 49.5 99.985 55.5 107.825" fill="#c3cfe7" stroke="#1f283f" stroke-width="1"></polygon><rect x="44.1" y="122.225" width="10.8" height="4.800000000000001" fill="#cfd1d9" opacity="0.75"></rect><rect x="148.9" y="130.61" width="3.2" height="9" rx="1.2" fill="#5c6f93" stroke="#1f283f" stroke-width="0.9"></rect><rect x="144.5" y="107.825" width="12" height="16.8" rx="3.3000000000000003" fill="#6e85b0" stroke="#1f283f" stroke-width="1"></rect><polygon points="144.5 107.825 150.5 99.985 156.5 107.825" fill="#c3cfe7" stroke="#1f283f" stroke-width="1"></polygon><rect x="145.1" y="122.225" width="10.8" height="4.800000000000001" fill="#cfd1d9" opacity="0.75"></rect></svg>
