<?xml version="1.0" encoding="UTF-8"?>
<svg viewBox="0 0 200 200"><path d="M 92.72 40 Q 100 20 107.28 40 Q 116.49 48.64 125.7 54.4 Q 127.13 64.96 128.56 72 L 71.44 72 Q 72.87 61.44 74.3 54.4 Q 83.51 45.76 92.72 40 Z" fill="#42547a" stroke="#f4f6ff" stroke-width="2.2" opacity="1" stroke-linejoin="round"></path><path d="M 71.44 72 L 128.56 72 Q 127.44 82.94 126.32 90.24 Q 128.28 100.61 130.24 107.52 Q 128.84 115.01 127.44 120 L 72.56 120 Q 71.16 112.51 69.76 107.52 Q 71.72 97.15 73.68 90.24 Q 72.56 79.3 71.44 72 Z" fill="#323f5c" stroke="#f4f6ff" stroke-width="1.4" opacity="0.45" stroke-linejoin="round"></path><path d="M 72.56 120 L 127.44 120 Q 128.28 126.48 129.12 130.8 Q 124.64 139.01 120.16 144.48 Q 118.48 156.9 116.8 160 Q 100 182 83.2 160 Q 81.52 150.69 79.84 144.48 Q 75.36 136.27 70.88 130.8 Q 71.72 124.32 72.56 120 Z" fill="#384768" stroke="#f4f6ff" stroke-width="1.4" opacity="0.45" stroke-linejoin="round"></path><path d="M 83.2 58 L 116.8 58 M 83.2 79 L 116.8 79 M 83.2 100 L 116.8 100 M 83.2 121 L 116.8 121 M 83.2 142 L 116.8 142" fill="none" stroke="#f4f6ff" stroke-width="1" opacity="0.55"></path><path d="M 92.72 40 Q 100 20 107.28 40 Q 116.49 48.64 125.7 54.4 Q 127.13 64.96 128.56 72 Q 127.44 82.94 126.32 90.24 Q 128.28 100.61 130.24 107.52 Q 128.84 115.01 127.44 120 Q 128.28 126.48 129.12 130.8 Q 124.64 139.01 120.16 144.48 Q 118.48 156.9 116.8 160 Q 100 182 83.2 160 Q 81.52 150.69 79.84 144.48 Q 75.36 136.27 70.88 130.8 Q 71.72 124.32 72.56 120 Q 71.16 112.51 69.76 107.52 Q 71.72 97.15 73.68 90.24 Q 72.56 79.3 71.44 72 Q 72.87 61.44 74.3 54.4 Q 83.51 45.76 92.72 40 Z" fill="none" stroke="#f4f6ff" stroke-width="1.8"></path></svg>
