<?xml version="1.0" encoding="UTF-8"?>
<svg viewBox="0 0 200 200"><path d="M 100 14 L 130.24 76 Q 128.28 86.94 126.32 94.24 Q 128.28 104.61 130.24 111.52 Q 128.84 119.01 127.44 124 Q 130.24 131.2 133.04 136 Q 129.12 145.12 125.2 151.2 Q 122.96 158.24 120.72 160 Q 100 184 79.28 160 Q 77.04 154.72 74.8 151.2 Q 70.88 142.08 66.96 136 Q 69.76 128.8 72.56 124 Q 71.16 116.51 69.76 111.52 Q 71.72 101.15 73.68 94.24 L 69.76 76 L 100 14 Z" fill="#2b374f" stroke="#f4f6ff" stroke-width="1.4" opacity="0.45" stroke-linejoin="round"></path><path d="M 69.76 76 L 130.24 76 Q 128.28 86.94 126.32 94.24 Q 128.28 104.61 130.24 111.52 Q 128.84 119.01 127.44 124 L 72.56 124 Q 71.16 116.51 69.76 111.52 Q 71.72 101.15 73.68 94.24 Q 71.72 83.3 69.76 76 Z" fill="#323f5c" stroke="#f4f6ff" stroke-width="1.4" opacity="0.45" stroke-linejoin="round"></path><path d="M 72.56 124 L 127.44 124 Q 130.24 131.2 133.04 136 Q 129.12 145.12 125.2 151.2 Q 122.96 158.24 120.72 160 Q 100 184 79.28 160 Q 77.04 154.72 74.8 151.2 Q 70.88 142.08 66.96 136 Q 69.76 128.8 72.56 124 Z" fill="#42547a" stroke="#f4f6ff" stroke-width="2.2" opacity="1" stroke-linejoin="round"></path><path d="M 83.2 58 L 116.8 58 M 83.2 79 L 116.8 79 M 83.2 100 L 116.8 100 M 83.2 121 L 116.8 121 M 83.2 142 L 116.8 142" fill="none" stroke="#f4f6ff" stroke-width="1" opacity="0.55"></path><path d="M 100 14 L 130.24 76 Q 128.28 86.94 126.32 94.24 Q 128.28 104.61 130.24 111.52 Q 128.84 119.01 127.44 124 Q 130.24 131.2 133.04 136 Q 129.12 145.12 125.2 151.2 Q 122.96 158.24 120.72 160 Q 100 184 79.28 160 Q 77.04 154.72 74.8 151.2 Q 70.88 142.08 66.96 136 Q 69.76 128.8 72.56 124 Q 71.16 116.51 69.76 111.52 Q 71.72 101.15 73.68 94.24 L 69.76 76 L 100 14 Z" fill="none" stroke="#f4f6ff" stroke-width="1.8"></path></svg>
