<?xml version="1.0" encoding="UTF-8"?>
<svg viewBox="0 0 200 200">
  <path
    d="M 124 72.16 L 133 73.77 L 142 75.22 L 151 76.61 L 160 78 L 160 117.6 L 151 117.74 L 142 117.83 L 133 117.91 L 124 118 Z"
    fill="#3b4c6e"
    stroke="#f4f6ff"
    stroke-width="2"
    stroke-linejoin="round"
  ></path>
  <g opacity="0.92">
    <rect x="146" y="86" width="11" height="18" rx="3.6" fill="#9499a9" stroke="#1f283f" stroke-width="1.1"></rect>
    <rect x="146" y="104" width="11" height="18" rx="3.6" fill="#9499a9" stroke="#1f283f" stroke-width="1.1"></rect>
    <rect x="146" y="122" width="11" height="18" rx="3.6" fill="#9499a9" stroke="#1f283f" stroke-width="1.1"></rect>
    <circle cx="160" cy="95" r="5.4" fill="#c3c5cc" stroke="#1f283f" stroke-width="1"></circle>
    <circle cx="160" cy="113" r="5.4" fill="#c3c5cc" stroke="#1f283f" stroke-width="1"></circle>
    <circle cx="160" cy="131" r="5.4" fill="#c3c5cc" stroke="#1f283f" stroke-width="1"></circle>
    <path d="M 160 95 L 168 100 L 160 110 L 152 100 Z" fill="#ffd166" opacity="0.86"></path>
    <path d="M 160 113 L 169 118 L 160 129 L 151 118 Z" fill="#ffd166" opacity="0.88"></path>
    <path d="M 160 131 L 168 136 L 160 146 L 152 136 Z" fill="#ffd166" opacity="0.86"></path>
  </g>
</svg>
