<?xml version="1.0" encoding="UTF-8"?>
<svg viewBox="0 0 200 200"><path d="M 100 14 L 130.24 76 Q 129.4 87.59 128.56 95.32 Q 130.8 105.81 133.04 112.8 Q 131.64 118.32 130.24 122 Q 129.68 128.48 129.12 132.8 Q 124.64 141.01 120.16 146.48 Q 118.48 157.3 116.8 160 Q 100 182 83.2 160 Q 81.52 151.89 79.84 146.48 Q 75.36 138.27 70.88 132.8 Q 70.32 126.32 69.76 122 Q 68.36 116.48 66.96 112.8 Q 69.2 102.31 71.44 95.32 L 69.76 76 L 100 14 Z" fill="#2b374f" stroke="#f4f6ff" stroke-width="1.4" opacity="0.45" stroke-linejoin="round"></path><path d="M 69.76 76 L 130.24 76 Q 129.4 87.59 128.56 95.32 Q 130.8 105.81 133.04 112.8 Q 131.64 118.32 130.24 122 L 69.76 122 Q 68.36 116.48 66.96 112.8 Q 69.2 102.31 71.44 95.32 Q 70.6 83.73 69.76 76 Z" fill="#42547a" stroke="#f4f6ff" stroke-width="2.2" opacity="1" stroke-linejoin="round"></path><path d="M 69.76 122 L 130.24 122 Q 129.68 128.48 129.12 132.8 Q 124.64 141.01 120.16 146.48 Q 118.48 157.3 116.8 160 Q 100 182 83.2 160 Q 81.52 151.89 79.84 146.48 Q 75.36 138.27 70.88 132.8 Q 70.32 126.32 69.76 122 Z" fill="#384768" stroke="#f4f6ff" stroke-width="1.4" opacity="0.45" stroke-linejoin="round"></path><path d="M 83.2 58 L 116.8 58 M 83.2 79 L 116.8 79 M 83.2 100 L 116.8 100 M 83.2 121 L 116.8 121 M 83.2 142 L 116.8 142" fill="none" stroke="#f4f6ff" stroke-width="1" opacity="0.55"></path><path d="M 100 14 L 130.24 76 Q 129.4 87.59 128.56 95.32 Q 130.8 105.81 133.04 112.8 Q 131.64 118.32 130.24 122 Q 129.68 128.48 129.12 132.8 Q 124.64 141.01 120.16 146.48 Q 118.48 157.3 116.8 160 Q 100 182 83.2 160 Q 81.52 151.89 79.84 146.48 Q 75.36 138.27 70.88 132.8 Q 70.32 126.32 69.76 122 Q 68.36 116.48 66.96 112.8 Q 69.2 102.31 71.44 95.32 L 69.76 76 L 100 14 Z" fill="none" stroke="#f4f6ff" stroke-width="1.8"></path></svg>
