<?xml version="1.0" encoding="UTF-8"?>
<svg viewBox="0 0 200 200"><path d="M 40 76 L 47.45 74.32 L 54.89 72.64 L 62.34 70.96 L 69.79 69.28 L 69.79 122.16 L 62.34 119.92 L 54.89 117.68 L 47.45 115.44 L 40 113.2 Z" fill="#2b374f" stroke="#f4f6ff" stroke-width="1.2" opacity="0.45" stroke-linejoin="round"></path><path d="M 69.79 69.28 L 80.63 66.92 L 91.47 64.55 L 102.31 67.17 L 113.16 70.38 L 124 72.29 L 124 118 L 113.16 120.82 L 102.31 123.65 L 91.47 125.7 L 80.63 123.93 L 69.79 122.16 Z" fill="#42547a" stroke="#f4f6ff" stroke-width="2" opacity="1" stroke-linejoin="round"></path><path d="M 124 72.29 L 133 73.88 L 142 75.29 L 151 76.64 L 160 78 L 160 117.6 L 151 117.69 L 142 117.79 L 133 117.9 L 124 118 Z" fill="#384768" stroke="#f4f6ff" stroke-width="1.2" opacity="0.45" stroke-linejoin="round"></path><path d="M 59.8 115.3 Q 64.3 126 77.8 113.5 L 66.1 109.9 Z" fill="#1f283f" stroke="#f4f6ff" stroke-width="1.2" opacity="0.65"></path><path d="M 40 76 L 52 73.29 L 64 70.59 L 76 67.93 L 88 65.31 L 100 66.4 L 112 70.17 L 124 72.29 L 136 74.38 L 148 76.19 L 160 78 L 160 117.6 L 148 117.73 L 136 117.86 L 124 118 L 112 121.13 L 100 124.25 L 88 125.14 L 76 123.18 L 64 120.42 L 52 116.81 L 40 113.2 Z" fill="none" stroke="#f4f6ff" stroke-width="1.8"></path></svg>
