<?xml version="1.0" encoding="UTF-8"?>
<svg viewBox="0 0 200 200"><path d="M 40 76 L 47.61 74.82 L 55.23 73.53 L 62.84 71.4 L 70.46 69.28 L 70.46 122.16 L 62.84 119.09 L 55.23 116.01 L 47.61 114.36 L 40 113.2 Z" fill="#42547a" stroke="#f4f6ff" stroke-width="2" opacity="1" stroke-linejoin="round"></path><path d="M 70.46 69.28 L 82.84 66.07 L 95.23 65.82 L 107.61 69.94 L 120 72.21 L 120 118 L 107.61 121.33 L 95.23 124.66 L 82.84 124.56 L 70.46 122.16 Z" fill="#323f5c" stroke="#f4f6ff" stroke-width="1.2" opacity="0.45" stroke-linejoin="round"></path><path d="M 120 72.21 L 130 74.05 L 140 75.4 L 150 76.7 L 160 78 L 160 117.6 L 150 117.68 L 140 117.77 L 130 117.89 L 120 118 Z" fill="#384768" stroke="#f4f6ff" stroke-width="1.2" opacity="0.45" stroke-linejoin="round"></path><path d="M 57.6 115.3 Q 62.1 126 75.6 113.5 L 63.9 109.9 Z" fill="#1f283f" stroke="#f4f6ff" stroke-width="1.2" opacity="0.65"></path><path d="M 40 76 L 52 74.13 L 64 71.08 L 76 67.85 L 88 64.74 L 100 67.41 L 112 70.74 L 124 72.95 L 136 74.88 L 148 76.44 L 160 78 L 160 117.6 L 148 117.69 L 136 117.82 L 124 117.95 L 112 120.15 L 100 123.38 L 88 125.57 L 76 123.24 L 64 119.55 L 52 115.03 L 40 113.2 Z" fill="none" stroke="#f4f6ff" stroke-width="1.8"></path></svg>
