<?xml version="1.0" encoding="UTF-8"?>
<svg viewBox="0 0 200 200">
  <path
    d="M 72.56 124 L 127.44 124 Q 128.68 128.4 129.92 132 Q 125.36 140.68 120.8 146.48 Q 118.56 154.12 116.32 156 Q 100 176 83.68 156 Q 81.44 151.72 79.2 148.48 Q 74.64 139.8 70.08 132 Q 71.32 128.4 72.56 124 Z"
    fill="#3b4c6e"
    stroke="#f4f6ff"
    stroke-width="2.2"
    stroke-linejoin="round"
  ></path>
  <g opacity="0.92">
    <rect x="84" y="140" width="12" height="18" rx="4" fill="#9499a9" stroke="#1f283f" stroke-width="1.2"></rect>
    <rect x="104" y="140" width="12" height="18" rx="4" fill="#9499a9" stroke="#1f283f" stroke-width="1.2"></rect>
    <ellipse cx="90" cy="158" rx="7" ry="5" fill="#c3c5cc" stroke="#1f283f" stroke-width="1"></ellipse>
    <ellipse cx="110" cy="158" rx="7" ry="5" fill="#c3c5cc" stroke="#1f283f" stroke-width="1"></ellipse>
    <path d="M 90 158 L 87 166 L 90 172 L 93 166 Z" fill="#ffd166" opacity="0.8"></path>
    <path d="M 110 158 L 107 166 L 110 172 L 113 166 Z" fill="#ffd166" opacity="0.8"></path>
  </g>
</svg>
