<?xml version="1.0" encoding="UTF-8"?>
<svg viewBox="0 0 200 200"><path d="M 100 14 L 130.24 76 Q 128 86.37 125.76 93.28 Q 127.44 103.65 129.12 110.56 Q 128.28 118.62 127.44 124 Q 128.28 130.48 129.12 134.8 Q 124.64 143.01 120.16 148.48 Q 118.48 157.7 116.8 160 Q 100 182 83.2 160 Q 81.52 153.09 79.84 148.48 Q 75.36 140.27 70.88 134.8 Q 71.72 128.32 72.56 124 Q 71.72 115.94 70.88 110.56 Q 72.56 100.19 74.24 93.28 L 69.76 76 L 100 14 Z" fill="#2b374f" stroke="#f4f6ff" stroke-width="1.4" opacity="0.45" stroke-linejoin="round"></path><path d="M 69.76 76 L 130.24 76 Q 128 86.37 125.76 93.28 Q 127.44 103.65 129.12 110.56 Q 128.28 118.62 127.44 124 L 72.56 124 Q 71.72 115.94 70.88 110.56 Q 72.56 100.19 74.24 93.28 Q 72 82.91 69.76 76 Z" fill="#42547a" stroke="#f4f6ff" stroke-width="2.2" opacity="1" stroke-linejoin="round"></path><path d="M 72.56 124 L 127.44 124 Q 128.28 130.48 129.12 134.8 Q 124.64 143.01 120.16 148.48 Q 118.48 157.7 116.8 160 Q 100 182 83.2 160 Q 81.52 153.09 79.84 148.48 Q 75.36 140.27 70.88 134.8 Q 71.72 128.32 72.56 124 Z" fill="#384768" stroke="#f4f6ff" stroke-width="1.4" opacity="0.45" stroke-linejoin="round"></path><path d="M 83.2 58 L 116.8 58 M 83.2 79 L 116.8 79 M 83.2 100 L 116.8 100 M 83.2 121 L 116.8 121 M 83.2 142 L 116.8 142" fill="none" stroke="#f4f6ff" stroke-width="1" opacity="0.55"></path><path d="M 100 14 L 130.24 76 Q 128 86.37 125.76 93.28 Q 127.44 103.65 129.12 110.56 Q 128.28 118.62 127.44 124 Q 128.28 130.48 129.12 134.8 Q 124.64 143.01 120.16 148.48 Q 118.48 157.7 116.8 160 Q 100 182 83.2 160 Q 81.52 153.09 79.84 148.48 Q 75.36 140.27 70.88 134.8 Q 71.72 128.32 72.56 124 Q 71.72 115.94 70.88 110.56 Q 72.56 100.19 74.24 93.28 L 69.76 76 L 100 14 Z" fill="none" stroke="#f4f6ff" stroke-width="1.8"></path></svg>
