<?xml version="1.0" encoding="UTF-8"?>
<svg viewBox="0 0 200 200"><path d="M 40 76 L 47.21 74.32 L 54.41 72.64 L 61.62 70.96 L 68.82 69.28 L 68.82 122.16 L 61.62 119.92 L 54.41 117.68 L 47.21 115.44 L 40 113.2 Z" fill="#2b374f" stroke="#f4f6ff" stroke-width="1.2" opacity="0.45" stroke-linejoin="round"></path><path d="M 68.82 69.28 L 80.66 66.84 L 92.49 64.4 L 104.33 67.44 L 116.16 70.53 L 128 72.45 L 128 118 L 116.16 120.76 L 104.33 123.52 L 92.49 125.82 L 80.66 123.99 L 68.82 122.16 Z" fill="#42547a" stroke="#f4f6ff" stroke-width="2" opacity="1" stroke-linejoin="round"></path><path d="M 128 72.45 L 136 73.75 L 144 75.13 L 152 76.57 L 160 78 L 160 117.6 L 152 117.73 L 144 117.82 L 136 117.91 L 128 118 Z" fill="#384768" stroke="#f4f6ff" stroke-width="1.2" opacity="0.45" stroke-linejoin="round"></path><path d="M 59.8 115.3 Q 64.3 126 77.8 113.5 L 66.1 109.9 Z" fill="#1f283f" stroke="#f4f6ff" stroke-width="1.2" opacity="0.65"></path><path d="M 40 76 L 52 73.2 L 64 70.4 L 76 67.8 L 88 65.33 L 100 66.1 L 112 69.8 L 124 71.8 L 136 73.75 L 148 75.85 L 160 78 L 160 117.6 L 148 117.77 L 136 117.91 L 124 118.93 L 112 121.73 L 100 124.53 L 88 125.12 L 76 123.27 L 64 120.66 L 52 116.93 L 40 113.2 Z" fill="none" stroke="#f4f6ff" stroke-width="1.8"></path></svg>
