<?xml version="1.0" encoding="UTF-8"?>
<svg viewBox="0 0 200 200"><path d="M 87.68 40 Q 100 22 112.32 40 Q 120.13 49.72 127.93 56.2 Q 130.21 68.08 132.48 76 L 67.52 76 Q 69.79 64.12 72.07 56.2 Q 79.87 46.48 87.68 40 Z" fill="#2b374f" stroke="#f4f6ff" stroke-width="1.4" opacity="0.6" stroke-linejoin="round"></path><path d="M 67.52 76 L 132.48 76 Q 131.36 86.94 130.24 94.24 Q 131.92 104.61 133.6 111.52 Q 130.52 119.01 127.44 124 L 72.56 124 Q 69.48 116.51 66.4 111.52 Q 68.08 101.15 69.76 94.24 Q 68.64 83.3 67.52 76 Z" fill="#323f5c" stroke="#f4f6ff" stroke-width="1.4" opacity="0.6" stroke-linejoin="round"></path><path d="M 72.56 124 L 127.44 124 Q 130.52 130.48 133.6 134.8 Q 129.12 143.01 124.64 148.48 Q 122.4 157.7 120.16 160 Q 100 182 79.84 160 Q 77.6 153.09 75.36 148.48 Q 70.88 140.27 66.4 134.8 Q 69.48 128.32 72.56 124 Z" fill="#384768" stroke="#f4f6ff" stroke-width="1.4" opacity="0.6" stroke-linejoin="round"></path><path d="M 83.2 58 L 116.8 58 M 83.2 79 L 116.8 79 M 83.2 100 L 116.8 100 M 83.2 121 L 116.8 121 M 83.2 142 L 116.8 142" fill="none" stroke="#f4f6ff" stroke-width="1" opacity="0.55"></path><polygon points="72 88 25.599999999999994 74 14 128 60.4 148" fill="#7a94c4" stroke="#1f283f" stroke-width="1.6" opacity="0.85" stroke-linejoin="round"></polygon><polygon points="128 88 174.4 74 186 128 139.6 148" fill="#7a94c4" stroke="#1f283f" stroke-width="1.6" opacity="0.85" stroke-linejoin="round"></polygon><rect x="87" y="28.8" width="16" height="11.2" rx="5.6" fill="#6e85b0" stroke="#1f283f" stroke-width="1"></rect><rect x="92.6" y="8" width="4.8" height="32" rx="2.16" fill="#cfd1d9" stroke="#1f283f" stroke-width="1"></rect><circle cx="95" cy="8" r="2.64" fill="#b7c5e2"></circle><rect x="97" y="28.8" width="16" height="11.2" rx="5.6" fill="#6e85b0" stroke="#1f283f" stroke-width="1"></rect><rect x="102.6" y="8" width="4.8" height="32" rx="2.16" fill="#cfd1d9" stroke="#1f283f" stroke-width="1"></rect><circle cx="105" cy="8" r="2.64" fill="#b7c5e2"></circle></svg>
