<?xml version="1.0" encoding="UTF-8"?>
<svg viewBox="0 0 200 200"><path d="M 19.12 91.04 L 40 87.01 L 47.38 83.03 L 54.76 79.06 L 62.14 75.08 L 69.52 71.11 L 69.52 122.5 L 62.14 118.66 L 54.76 114.82 L 47.38 110.98 L 40 107.15 L 19.12 91.04 Z" fill="#2b374f" stroke="#f4f6ff" stroke-width="1.2" opacity="0.6" stroke-linejoin="round"></path><path d="M 69.52 71.11 L 80.42 66.29 L 91.31 61.48 L 102.21 63.35 L 113.1 68.21 L 124 76.14 L 124 118.76 L 113.1 120.81 L 102.21 122.87 L 91.31 124.15 L 80.42 123.33 L 69.52 122.5 Z" fill="#323f5c" stroke="#f4f6ff" stroke-width="1.2" opacity="0.6" stroke-linejoin="round"></path><path d="M 124 76.14 L 133 82.69 L 142 86.85 L 151 90.42 L 160 93.99 L 160 115.95 L 151 116.88 L 142 117.57 L 133 118.17 L 124 118.76 Z" fill="#384768" stroke="#f4f6ff" stroke-width="1.2" opacity="0.6" stroke-linejoin="round"></path><path d="M 60.49889694295619 115.94533766233766 Q 64.9988969429562 124.37350649350648 78.4988969429562 114.06941558441558 L 66.79889694295619 110.31757142857143 Z" fill="#1f283f" stroke="#f4f6ff" stroke-width="1.2" opacity="0.65"></path><polygon points="102 100 112.4 89.97625 154 91.04 137.36 109 97.84 115.795" fill="#7a94c4" stroke="#1f283f" stroke-width="1.6" opacity="0.85" stroke-linejoin="round"></polygon><polyline points="102 100 112.4 89.97625 154 91.04" fill="none" stroke="#f4f6ff" stroke-width="2" opacity="0.85" stroke-linejoin="round" stroke-linecap="round"></polyline><rect x="117.68" y="123.3" width="4" height="12" rx="1.6" fill="#5c6f93" stroke="#1f283f" stroke-width="1"></rect><rect x="103.18" y="133.3" width="30" height="14" rx="3.5" fill="#6e85b0" stroke="#1f283f" stroke-width="1.1"></rect><polygon points="103.18 133.3 96.58000000000001 140.3 103.18 147.3" fill="#c3cfe7" stroke="#1f283f" stroke-width="1"></polygon><polygon points="133.18 134.70000000000002 138.58 140.3 133.18 145.9" fill="#cfd1d9" opacity="0.75"></polygon><rect x="132.24" y="123.3" width="4" height="11" rx="1.6" fill="#5c6f93" stroke="#1f283f" stroke-width="1"></rect><rect x="118.84" y="132.3" width="28" height="12" rx="3" fill="#6e85b0" stroke="#1f283f" stroke-width="1.1"></rect><polygon points="118.84 132.3 112.68 138.3 118.84 144.3" fill="#c3cfe7" stroke="#1f283f" stroke-width="1"></polygon><polygon points="146.84 133.5 151.88 138.3 146.84 143.10000000000002" fill="#cfd1d9" opacity="0.75"></polygon></svg>
