<?xml version="1.0" encoding="UTF-8"?>
<svg viewBox="0 0 200 200"><path d="M 40 76 L 47.43 74.32 L 54.86 72.64 L 62.29 70.96 L 69.72 69.28 L 69.72 122.16 L 62.29 119.92 L 54.86 117.68 L 47.43 115.44 L 40 113.2 Z" fill="#2b374f" stroke="#f4f6ff" stroke-width="1.2" opacity="0.6" stroke-linejoin="round"></path><path d="M 69.72 69.28 L 80.57 67.01 L 91.43 64.75 L 102.29 66.84 L 113.14 70.22 L 124 72.21 L 124 118 L 113.14 120.92 L 102.29 123.84 L 91.43 125.56 L 80.57 123.86 L 69.72 122.16 Z" fill="#323f5c" stroke="#f4f6ff" stroke-width="1.2" opacity="0.6" stroke-linejoin="round"></path><path d="M 124 72.21 L 133 73.87 L 142 75.29 L 151 76.64 L 160 78 L 160 117.6 L 151 117.69 L 142 117.79 L 133 117.9 L 124 118 Z" fill="#384768" stroke="#f4f6ff" stroke-width="1.2" opacity="0.6" stroke-linejoin="round"></path><path d="M 59.8 115.3 Q 64.3 126 77.8 113.5 L 66.1 109.9 Z" fill="#1f283f" stroke="#f4f6ff" stroke-width="1.2" opacity="0.65"></path><path d="M 40 76 L 52 73.29 L 64 70.57 L 76 67.97 L 88 65.46 L 100 66.08 L 112 70.01 L 124 72.21 L 136 74.38 L 148 76.19 L 160 78 L 160 117.6 L 148 117.73 L 136 117.86 L 124 118 L 112 121.23 L 100 124.45 L 88 125.02 L 76 123.14 L 64 120.44 L 52 116.82 L 40 113.2 Z" fill="none" stroke="#f4f6ff" stroke-width="1.8"></path><polygon points="102 100 112.4 89.97625 154 91.04 137.36 109 97.84 115.795" fill="#7a94c4" stroke="#1f283f" stroke-width="1.6" opacity="0.85" stroke-linejoin="round"></polygon><polyline points="102 100 112.4 89.97625 154 91.04" fill="none" stroke="#f4f6ff" stroke-width="2" opacity="0.85" stroke-linejoin="round" stroke-linecap="round"></polyline><rect x="117.68" y="123.3" width="4" height="12" rx="1.6" fill="#5c6f93" stroke="#1f283f" stroke-width="1"></rect><rect x="103.18" y="133.3" width="30" height="14" rx="3.5" fill="#6e85b0" stroke="#1f283f" stroke-width="1.1"></rect><polygon points="103.18 133.3 96.58000000000001 140.3 103.18 147.3" fill="#c3cfe7" stroke="#1f283f" stroke-width="1"></polygon><polygon points="133.18 134.70000000000002 138.58 140.3 133.18 145.9" fill="#cfd1d9" opacity="0.75"></polygon><rect x="132.24" y="123.3" width="4" height="11" rx="1.6" fill="#5c6f93" stroke="#1f283f" stroke-width="1"></rect><rect x="118.84" y="132.3" width="28" height="12" rx="3" fill="#6e85b0" stroke="#1f283f" stroke-width="1.1"></rect><polygon points="118.84 132.3 112.68 138.3 118.84 144.3" fill="#c3cfe7" stroke="#1f283f" stroke-width="1"></polygon><polygon points="146.84 133.5 151.88 138.3 146.84 143.10000000000002" fill="#cfd1d9" opacity="0.75"></polygon></svg>
