<?xml version="1.0" encoding="UTF-8"?>
<svg viewBox="0 0 200 200"><polygon points="102 100 112.4 89.97625 154 91.04 137.36 109 97.84 115.795" fill="#7a94c4" stroke="#1f283f" stroke-width="1.6" opacity="0.85" stroke-linejoin="round"></polygon><polyline points="102 100 112.4 89.97625 154 91.04" fill="none" stroke="#f4f6ff" stroke-width="2" opacity="0.85" stroke-linejoin="round" stroke-linecap="round"></polyline><rect x="117.68" y="123.3" width="4" height="12" rx="1.6" fill="#5c6f93" stroke="#1f283f" stroke-width="1"></rect><rect x="103.18" y="133.3" width="30" height="14" rx="3.5" fill="#6e85b0" stroke="#1f283f" stroke-width="1.1"></rect><polygon points="103.18 133.3 96.58000000000001 140.3 103.18 147.3" fill="#c3cfe7" stroke="#1f283f" stroke-width="1"></polygon><polygon points="133.18 134.70000000000002 138.58 140.3 133.18 145.9" fill="#cfd1d9" opacity="0.75"></polygon><rect x="132.24" y="123.3" width="4" height="11" rx="1.6" fill="#5c6f93" stroke="#1f283f" stroke-width="1"></rect><rect x="118.84" y="132.3" width="28" height="12" rx="3" fill="#6e85b0" stroke="#1f283f" stroke-width="1.1"></rect><polygon points="118.84 132.3 112.68 138.3 118.84 144.3" fill="#c3cfe7" stroke="#1f283f" stroke-width="1"></polygon><polygon points="146.84 133.5 151.88 138.3 146.84 143.10000000000002" fill="#cfd1d9" opacity="0.75"></polygon></svg>
