<?xml version="1.0" encoding="UTF-8"?>
<svg viewBox="0 0 200 200"><path d="M 40 90.22 L 48.28 79.79 L 56.56 69.67 L 64.84 66.31 L 73.12 62.94 L 73.12 116.26 L 64.84 113.19 L 56.56 110.11 L 48.28 107.67 L 40 105.38 Z" fill="#2b374f" stroke="#f4f6ff" stroke-width="1.2" opacity="0.6" stroke-linejoin="round"></path><path d="M 73.12 62.94 L 85.84 57.46 L 98.56 56.21 L 111.28 63.21 L 124 72.07 L 124 113.64 L 111.28 115.46 L 98.56 117.29 L 85.84 117.25 L 73.12 116.26 Z" fill="#323f5c" stroke="#f4f6ff" stroke-width="1.2" opacity="0.6" stroke-linejoin="round"></path><path d="M 124 72.07 L 133 78.36 L 142 83.84 L 151 89.11 L 160 94.39 L 160 111.59 L 151 112.09 L 142 112.61 L 133 113.12 L 124 113.64 Z" fill="#384768" stroke="#f4f6ff" stroke-width="1.2" opacity="0.6" stroke-linejoin="round"></path><path d="M 59.8 111.59171861471862 Q 64.3 117.90874458874458 77.8 110.22798701298701 L 66.1 107.50052380952381 Z" fill="#1f283f" stroke="#f4f6ff" stroke-width="1.2" opacity="0.65"></path><polygon points="108 90.95 114.8 92.255 139.28 103.16 140.3 110.525 119.56 112.7 106.3 126.185" fill="#7a94c4" stroke="#1f283f" stroke-width="1.6" opacity="0.85" stroke-linejoin="round"></polygon><polyline points="108 90.95 114.8 92.255 139.28 103.16" fill="none" stroke="#f4f6ff" stroke-width="2" opacity="0.85" stroke-linejoin="round" stroke-linecap="round"></polyline><rect x="30.4" y="85" width="9.6" height="14" rx="3.5" fill="#6e85b0" stroke="#1f283f" stroke-width="1.2"></rect><line x1="8" y1="92" x2="42" y2="90.6" stroke="#1f283f" stroke-width="2.2" stroke-linecap="round"></line><circle cx="8" cy="92" r="3.5" fill="#c3c5cc"></circle><rect x="30.4" y="95" width="9.6" height="14" rx="3.5" fill="#6e85b0" stroke="#1f283f" stroke-width="1.2"></rect><line x1="8" y1="102" x2="42" y2="100.6" stroke="#1f283f" stroke-width="2.2" stroke-linecap="round"></line><circle cx="8" cy="102" r="3.5" fill="#c3c5cc"></circle></svg>
