<?xml version="1.0" encoding="UTF-8"?>
<svg viewBox="0 0 200 200"><path d="M 100 14 L 130.24 76 Q 128.28 86.94 126.32 94.24 Q 128.28 104.61 130.24 111.52 Q 128.84 119.01 127.44 124 Q 128.28 130.48 129.12 134.8 Q 124.64 143.01 120.16 148.48 Q 118.48 157.7 116.8 160 Q 100 182 83.2 160 Q 81.52 153.09 79.84 148.48 Q 75.36 140.27 70.88 134.8 Q 71.72 128.32 72.56 124 Q 71.16 116.51 69.76 111.52 Q 71.72 101.15 73.68 94.24 L 69.76 76 L 100 14 Z" fill="#2b374f" stroke="#f4f6ff" stroke-width="1.4" opacity="0.25" stroke-linejoin="round"></path><path d="M 69.76 76 L 130.24 76 Q 128.28 86.94 126.32 94.24 Q 128.28 104.61 130.24 111.52 Q 128.84 119.01 127.44 124 L 72.56 124 Q 71.16 116.51 69.76 111.52 Q 71.72 101.15 73.68 94.24 Q 71.72 83.3 69.76 76 Z" fill="#323f5c" stroke="#f4f6ff" stroke-width="1.4" opacity="0.25" stroke-linejoin="round"></path><path d="M 72.56 124 L 127.44 124 Q 128.28 130.48 129.12 134.8 Q 124.64 143.01 120.16 148.48 Q 118.48 157.7 116.8 160 Q 100 182 83.2 160 Q 81.52 153.09 79.84 148.48 Q 75.36 140.27 70.88 134.8 Q 71.72 128.32 72.56 124 Z" fill="#384768" stroke="#f4f6ff" stroke-width="1.4" opacity="0.25" stroke-linejoin="round"></path><path d="M 100 14 L 130.24 76 Q 128.28 86.94 126.32 94.24 Q 128.28 104.61 130.24 111.52 Q 128.84 119.01 127.44 124 Q 128.28 130.48 129.12 134.8 Q 124.64 143.01 120.16 148.48 Q 118.48 157.7 116.8 160 Q 100 182 83.2 160 Q 81.52 153.09 79.84 148.48 Q 75.36 140.27 70.88 134.8 Q 71.72 128.32 72.56 124 Q 71.16 116.51 69.76 111.52 Q 71.72 101.15 73.68 94.24 L 69.76 76 L 100 14 Z" fill="none" stroke="#f4f6ff" stroke-width="1.8"></path><polygon points="72 106 24 88 43.2 132 62.4 121.6" fill="#7a94c4" stroke="#1f283f" stroke-width="1.6" opacity="0.95" stroke-linejoin="round"></polygon><polygon points="128 106 176 88 156.8 132 137.6 121.6" fill="#7a94c4" stroke="#1f283f" stroke-width="1.6" opacity="0.95" stroke-linejoin="round"></polygon><polyline points="72 106 24 88 62.4 121.6" fill="none" stroke="#f4f6ff" stroke-width="2.2" opacity="0.95" stroke-linejoin="round" stroke-linecap="round"></polyline></svg>
