<svg viewBox="0 0 200 200"><path d="M 88.24 40 Q 100 24 111.76 40 Q 121.2 49.18 130.64 55.3 Q 131.28 66.52 131.92 74 L 68.08 74 Q 68.72 62.78 69.36 55.3 Q 78.8 46.12 88.24 40 Z" fill="#42547a" stroke="#f4f6ff" stroke-width="2.2" opacity="1" stroke-linejoin="round"></path><path d="M 68.08 74 L 131.92 74 Q 129.12 84.94 126.32 92.24 Q 128.28 102.61 130.24 109.52 Q 128.84 117.01 127.44 122 L 72.56 122 Q 71.16 114.51 69.76 109.52 Q 71.72 99.15 73.68 92.24 Q 70.88 81.3 68.08 74 Z" fill="#323f5c" stroke="#f4f6ff" stroke-width="1.4" opacity="0.45" stroke-linejoin="round"></path><path d="M 72.56 122 L 127.44 122 Q 128.28 128.48 129.12 132.8 Q 124.64 141.01 120.16 146.48 Q 118.48 157.3 116.8 160 Q 100 182 83.2 160 Q 81.52 151.89 79.84 146.48 Q 75.36 138.27 70.88 132.8 Q 71.72 126.32 72.56 122 Z" fill="#384768" stroke="#f4f6ff" stroke-width="1.4" opacity="0.45" stroke-linejoin="round"></path><path d="M 83.2 58 L 116.8 58 M 83.2 79 L 116.8 79 M 83.2 100 L 116.8 100 M 83.2 121 L 116.8 121 M 83.2 142 L 116.8 142" fill="none" stroke="#f4f6ff" stroke-width="1" opacity="0.55"></path><path d="M 88.24 40 Q 100 24 111.76 40 Q 121.2 49.18 130.64 55.3 Q 131.28 66.52 131.92 74 Q 129.12 84.94 126.32 92.24 Q 128.28 102.61 130.24 109.52 Q 128.84 117.01 127.44 122 Q 128.28 128.48 129.12 132.8 Q 124.64 141.01 120.16 146.48 Q 118.48 157.3 116.8 160 Q 100 182 83.2 160 Q 81.52 151.89 79.84 146.48 Q 75.36 138.27 70.88 132.8 Q 71.72 126.32 72.56 122 Q 71.16 114.51 69.76 109.52 Q 71.72 99.15 73.68 92.24 Q 70.88 81.3 68.08 74 Q 68.72 62.78 69.36 55.3 Q 78.8 46.12 88.24 40 Z" fill="none" stroke="#f4f6ff" stroke-width="1.8"></path></svg>
