<svg viewBox="0 0 200 200"><path d="M 100 14 L 130.24 76 Q 128.28 86.94 126.32 94.24 Q 128.28 104.61 130.24 111.52 Q 128.84 119.01 127.44 124 Q 128.28 130.48 129.12 134.8 Q 124.64 143.01 120.16 148.48 Q 118.48 157.7 116.8 160 Q 100 182 83.2 160 Q 81.52 153.09 79.84 148.48 Q 75.36 140.27 70.88 134.8 Q 71.72 128.32 72.56 124 Q 71.16 116.51 69.76 111.52 Q 71.72 101.15 73.68 94.24 L 69.76 76 L 100 14 Z" fill="#2b374f" stroke="#f4f6ff" stroke-width="1.4" opacity="0.25" stroke-linejoin="round"></path><path d="M 69.76 76 L 130.24 76 Q 128.28 86.94 126.32 94.24 Q 128.28 104.61 130.24 111.52 Q 128.84 119.01 127.44 124 L 72.56 124 Q 71.16 116.51 69.76 111.52 Q 71.72 101.15 73.68 94.24 Q 71.72 83.3 69.76 76 Z" fill="#323f5c" stroke="#f4f6ff" stroke-width="1.4" opacity="0.25" stroke-linejoin="round"></path><path d="M 72.56 124 L 127.44 124 Q 128.28 130.48 129.12 134.8 Q 124.64 143.01 120.16 148.48 Q 118.48 157.7 116.8 160 Q 100 182 83.2 160 Q 81.52 153.09 79.84 148.48 Q 75.36 140.27 70.88 134.8 Q 71.72 128.32 72.56 124 Z" fill="#384768" stroke="#f4f6ff" stroke-width="1.4" opacity="0.25" stroke-linejoin="round"></path><path d="M 83.2 58 L 116.8 58 M 83.2 79 L 116.8 79 M 83.2 100 L 116.8 100 M 83.2 121 L 116.8 121 M 83.2 142 L 116.8 142" fill="none" stroke="#f4f6ff" stroke-width="1" opacity="0.55"></path><path d="M 100 14 L 130.24 76 Q 128.28 86.94 126.32 94.24 Q 128.28 104.61 130.24 111.52 Q 128.84 119.01 127.44 124 Q 128.28 130.48 129.12 134.8 Q 124.64 143.01 120.16 148.48 Q 118.48 157.7 116.8 160 Q 100 182 83.2 160 Q 81.52 153.09 79.84 148.48 Q 75.36 140.27 70.88 134.8 Q 71.72 128.32 72.56 124 Q 71.16 116.51 69.76 111.52 Q 71.72 101.15 73.68 94.24 L 69.76 76 L 100 14 Z" fill="none" stroke="#f4f6ff" stroke-width="1.8"></path><polygon points="72 90 16 90 16 132 72 126" fill="#7a94c4" stroke="#1f283f" stroke-width="1.6" opacity="0.85" stroke-linejoin="round"></polygon><polygon points="128 90 184 90 184 132 128 126" fill="#7a94c4" stroke="#1f283f" stroke-width="1.6" opacity="0.85" stroke-linejoin="round"></polygon><rect x="45.199999999999996" y="126.47999999999999" width="3.2" height="12" rx="1.2" fill="#5c6f93" stroke="#1f283f" stroke-width="0.9"></rect><ellipse cx="46.8" cy="135.3" rx="9" ry="9.1" fill="#6e85b0" stroke="#1f283f" stroke-width="1"></ellipse><circle cx="46.8" cy="128.8" r="4.95" fill="#c9d4ea"></circle><rect x="151.6" y="126.47999999999999" width="3.2" height="12" rx="1.2" fill="#5c6f93" stroke="#1f283f" stroke-width="0.9"></rect><ellipse cx="153.2" cy="135.3" rx="9" ry="9.1" fill="#6e85b0" stroke="#1f283f" stroke-width="1"></ellipse><circle cx="153.2" cy="128.8" r="4.95" fill="#c9d4ea"></circle><rect x="45.199999999999996" y="138.24" width="3.2" height="11" rx="1.2" fill="#5c6f93" stroke="#1f283f" stroke-width="0.9"></rect><ellipse cx="46.8" cy="133.3" rx="8" ry="8.399999999999999" fill="#6e85b0" stroke="#1f283f" stroke-width="1"></ellipse><circle cx="46.8" cy="127.30000000000001" r="4.4" fill="#c9d4ea"></circle><rect x="151.6" y="138.24" width="3.2" height="11" rx="1.2" fill="#5c6f93" stroke="#1f283f" stroke-width="0.9"></rect><ellipse cx="153.2" cy="133.3" rx="8" ry="8.399999999999999" fill="#6e85b0" stroke="#1f283f" stroke-width="1"></ellipse><circle cx="153.2" cy="127.30000000000001" r="4.4" fill="#c9d4ea"></circle></svg>
