<svg viewBox="0 0 200 200"><path d="M 100 14 L 130.24 76 Q 128.28 86.94 126.32 94.24 Q 128.28 104.61 130.24 111.52 Q 128.84 119.01 127.44 124 Q 128.28 130.48 129.12 134.8 Q 124.64 143.01 120.16 148.48 Q 118.48 157.7 116.8 160 Q 100 182 83.2 160 Q 81.52 153.09 79.84 148.48 Q 75.36 140.27 70.88 134.8 Q 71.72 128.32 72.56 124 Q 71.16 116.51 69.76 111.52 Q 71.72 101.15 73.68 94.24 L 69.76 76 L 100 14 Z" fill="#2b374f" stroke="#f4f6ff" stroke-width="1.4" opacity="0.25" stroke-linejoin="round"></path><path d="M 69.76 76 L 130.24 76 Q 128.28 86.94 126.32 94.24 Q 128.28 104.61 130.24 111.52 Q 128.84 119.01 127.44 124 L 72.56 124 Q 71.16 116.51 69.76 111.52 Q 71.72 101.15 73.68 94.24 Q 71.72 83.3 69.76 76 Z" fill="#323f5c" stroke="#f4f6ff" stroke-width="1.4" opacity="0.25" stroke-linejoin="round"></path><path d="M 72.56 124 L 127.44 124 Q 128.28 130.48 129.12 134.8 Q 124.64 143.01 120.16 148.48 Q 118.48 157.7 116.8 160 Q 100 182 83.2 160 Q 81.52 153.09 79.84 148.48 Q 75.36 140.27 70.88 134.8 Q 71.72 128.32 72.56 124 Z" fill="#384768" stroke="#f4f6ff" stroke-width="1.4" opacity="0.25" stroke-linejoin="round"></path><path d="M 83.2 58 L 116.8 58 M 83.2 79 L 116.8 79 M 83.2 100 L 116.8 100 M 83.2 121 L 116.8 121 M 83.2 142 L 116.8 142" fill="none" stroke="#f4f6ff" stroke-width="1" opacity="0.55"></path><path d="M 100 14 L 130.24 76 Q 128.28 86.94 126.32 94.24 Q 128.28 104.61 130.24 111.52 Q 128.84 119.01 127.44 124 Q 128.28 130.48 129.12 134.8 Q 124.64 143.01 120.16 148.48 Q 118.48 157.7 116.8 160 Q 100 182 83.2 160 Q 81.52 153.09 79.84 148.48 Q 75.36 140.27 70.88 134.8 Q 71.72 128.32 72.56 124 Q 71.16 116.51 69.76 111.52 Q 71.72 101.15 73.68 94.24 L 69.76 76 L 100 14 Z" fill="none" stroke="#f4f6ff" stroke-width="1.8"></path><polygon points="72 98 44.400000000000006 74 26 116 60.5 108.8" fill="#7a94c4" stroke="#1f283f" stroke-width="1.6" opacity="0.85" stroke-linejoin="round"></polygon><polygon points="128 98 155.6 74 174 116 139.5 108.8" fill="#7a94c4" stroke="#1f283f" stroke-width="1.6" opacity="0.85" stroke-linejoin="round"></polygon><polyline points="72 98 44.400000000000006 74 60.5 108.8" fill="none" stroke="#f4f6ff" stroke-width="2.2" opacity="0.85" stroke-linejoin="round" stroke-linecap="round"></polyline><rect x="49.699999999999996" y="130.31" width="3.2" height="9" rx="1.2" fill="#5c6f93" stroke="#1f283f" stroke-width="0.9"></rect><rect x="45.3" y="98.975" width="12" height="19.2" rx="3.3000000000000003" fill="#6e85b0" stroke="#1f283f" stroke-width="1"></rect><polygon points="45.3 98.975 51.3 90.01499999999999 57.3 98.975" fill="#c3cfe7" stroke="#1f283f" stroke-width="1"></polygon><rect x="45.9" y="115.77499999999999" width="10.8" height="4.800000000000001" fill="#cfd1d9" opacity="0.75"></rect><rect x="147.1" y="130.31" width="3.2" height="9" rx="1.2" fill="#5c6f93" stroke="#1f283f" stroke-width="0.9"></rect><rect x="142.7" y="98.975" width="12" height="19.2" rx="3.3000000000000003" fill="#6e85b0" stroke="#1f283f" stroke-width="1"></rect><polygon points="142.7 98.975 148.7 90.01499999999999 154.7 98.975" fill="#c3cfe7" stroke="#1f283f" stroke-width="1"></polygon><rect x="143.29999999999998" y="115.77499999999999" width="10.8" height="4.800000000000001" fill="#cfd1d9" opacity="0.75"></rect></svg>
