<svg viewBox="0 0 200 200"><path d="M 40 76 L 47.57 74.32 L 55.14 72.64 L 62.72 70.96 L 70.29 69.28 L 70.29 122.16 L 62.72 119.92 L 55.14 117.68 L 47.57 115.44 L 40 113.2 Z" fill="#2b374f" stroke="#f4f6ff" stroke-width="1.2" opacity="0.45" stroke-linejoin="round"></path><path d="M 70.29 69.28 L 83.22 66.64 L 96.14 64.43 L 109.07 68.69 L 122 71.89 L 122 118 L 109.07 121.88 L 96.14 125.75 L 83.22 124.14 L 70.29 122.16 Z" fill="#42547a" stroke="#f4f6ff" stroke-width="2" opacity="1" stroke-linejoin="round"></path><path d="M 122 71.89 L 131.5 73.92 L 141 75.35 L 150.5 76.67 L 160 78 L 160 117.6 L 150.5 117.68 L 141 117.78 L 131.5 117.89 L 122 118 Z" fill="#384768" stroke="#f4f6ff" stroke-width="1.2" opacity="0.45" stroke-linejoin="round"></path><path d="M 59.8 115.3 Q 64.3 126 77.8 113.5 L 66.1 109.9 Z" fill="#1f283f" stroke="#f4f6ff" stroke-width="1.2" opacity="0.65"></path><path d="M 40 76 L 52 73.34 L 64 70.68 L 76 68.11 L 88 65.66 L 100 65.7 L 112 69.66 L 124 72.32 L 136 74.65 L 148 76.32 L 160 78 L 160 117.6 L 148 117.71 L 136 117.84 L 124 117.98 L 112 121 L 100 124.6 L 88 124.88 L 76 123.04 L 64 120.3 L 52 116.75 L 40 113.2 Z" fill="none" stroke="#f4f6ff" stroke-width="1.8"></path></svg>
