<svg viewBox="0 0 200 200"><path d="M 100 14 L 130.24 76 Q 128.28 86.94 126.32 94.24 Q 128.28 104.61 130.24 111.52 Q 128.84 119.01 127.44 124 Q 129.4 130.84 131.36 135.4 Q 127.16 145.89 122.96 152.88 Q 120.72 158.58 118.48 160 Q 100 186 81.52 160 Q 79.28 155.73 77.04 152.88 Q 72.84 142.39 68.64 135.4 Q 70.6 128.56 72.56 124 Q 71.16 116.51 69.76 111.52 Q 71.72 101.15 73.68 94.24 L 69.76 76 L 100 14 Z" fill="#2b374f" stroke="#f4f6ff" stroke-width="1.4" opacity="0.45" stroke-linejoin="round"></path><path d="M 69.76 76 L 130.24 76 Q 128.28 86.94 126.32 94.24 Q 128.28 104.61 130.24 111.52 Q 128.84 119.01 127.44 124 L 72.56 124 Q 71.16 116.51 69.76 111.52 Q 71.72 101.15 73.68 94.24 Q 71.72 83.3 69.76 76 Z" fill="#323f5c" stroke="#f4f6ff" stroke-width="1.4" opacity="0.45" stroke-linejoin="round"></path><path d="M 72.56 124 L 127.44 124 Q 129.4 130.84 131.36 135.4 Q 127.16 145.89 122.96 152.88 Q 120.72 158.58 118.48 160 Q 100 186 81.52 160 Q 79.28 155.73 77.04 152.88 Q 72.84 142.39 68.64 135.4 Q 70.6 128.56 72.56 124 Z" fill="#42547a" stroke="#f4f6ff" stroke-width="2.2" opacity="1" stroke-linejoin="round"></path><path d="M 83.2 58 L 116.8 58 M 83.2 79 L 116.8 79 M 83.2 100 L 116.8 100 M 83.2 121 L 116.8 121 M 83.2 142 L 116.8 142" fill="none" stroke="#f4f6ff" stroke-width="1" opacity="0.55"></path><path d="M 100 14 L 130.24 76 Q 128.28 86.94 126.32 94.24 Q 128.28 104.61 130.24 111.52 Q 128.84 119.01 127.44 124 Q 129.4 130.84 131.36 135.4 Q 127.16 145.89 122.96 152.88 Q 120.72 158.58 118.48 160 Q 100 186 81.52 160 Q 79.28 155.73 77.04 152.88 Q 72.84 142.39 68.64 135.4 Q 70.6 128.56 72.56 124 Q 71.16 116.51 69.76 111.52 Q 71.72 101.15 73.68 94.24 L 69.76 76 L 100 14 Z" fill="none" stroke="#f4f6ff" stroke-width="1.8"></path></svg>
