<svg viewBox="0 0 200 200"><path d="M 92.16 40 Q 100 22 107.84 40 Q 117.83 49.18 127.82 55.3 Q 129.03 66.52 130.24 74 L 69.76 74 Q 70.97 62.78 72.18 55.3 Q 82.17 46.12 92.16 40 Z" fill="#2b374f" stroke="#f4f6ff" stroke-width="1.4" opacity="0.35" stroke-linejoin="round"></path><path d="M 69.76 74 L 130.24 74 Q 128.28 84.94 126.32 92.24 Q 128.28 102.61 130.24 109.52 Q 128.84 117.01 127.44 122 L 72.56 122 Q 71.16 114.51 69.76 109.52 Q 71.72 99.15 73.68 92.24 Q 71.72 81.3 69.76 74 Z" fill="#323f5c" stroke="#f4f6ff" stroke-width="1.4" opacity="0.35" stroke-linejoin="round"></path><path d="M 72.56 122 L 127.44 122 Q 128.28 128.48 129.12 132.8 Q 124.64 141.01 120.16 146.48 Q 118.48 157.3 116.8 160 Q 100 182 83.2 160 Q 81.52 151.89 79.84 146.48 Q 75.36 138.27 70.88 132.8 Q 71.72 126.32 72.56 122 Z" fill="#384768" stroke="#f4f6ff" stroke-width="1.4" opacity="0.35" stroke-linejoin="round"></path><path d="M 83.2 58 L 116.8 58 M 83.2 79 L 116.8 79 M 83.2 100 L 116.8 100 M 83.2 121 L 116.8 121 M 83.2 142 L 116.8 142" fill="none" stroke="#f4f6ff" stroke-width="1" opacity="0.55"></path><path d="M 92.16 40 Q 100 22 107.84 40 Q 117.83 49.18 127.82 55.3 Q 129.03 66.52 130.24 74 Q 128.28 84.94 126.32 92.24 Q 128.28 102.61 130.24 109.52 Q 128.84 117.01 127.44 122 Q 128.28 128.48 129.12 132.8 Q 124.64 141.01 120.16 146.48 Q 118.48 157.3 116.8 160 Q 100 182 83.2 160 Q 81.52 151.89 79.84 146.48 Q 75.36 138.27 70.88 132.8 Q 71.72 126.32 72.56 122 Q 71.16 114.51 69.76 109.52 Q 71.72 99.15 73.68 92.24 Q 71.72 81.3 69.76 74 Q 70.97 62.78 72.18 55.3 Q 82.17 46.12 92.16 40 Z" fill="none" stroke="#f4f6ff" stroke-width="1.8"></path><rect x="85" y="28.8" width="14" height="11.2" rx="4.8999999999999995" fill="#6e85b0" stroke="#1f283f" stroke-width="1"></rect><rect x="89.9" y="8" width="4.2" height="32" rx="1.8900000000000001" fill="#cfd1d9" stroke="#1f283f" stroke-width="1"></rect><circle cx="92" cy="8" r="2.3100000000000005" fill="#b7c5e2"></circle><rect x="93" y="28.8" width="14" height="11.2" rx="4.8999999999999995" fill="#6e85b0" stroke="#1f283f" stroke-width="1"></rect><rect x="97.9" y="8" width="4.2" height="32" rx="1.8900000000000001" fill="#cfd1d9" stroke="#1f283f" stroke-width="1"></rect><circle cx="100" cy="8" r="2.3100000000000005" fill="#b7c5e2"></circle><rect x="101" y="28.8" width="14" height="11.2" rx="4.8999999999999995" fill="#6e85b0" stroke="#1f283f" stroke-width="1"></rect><rect x="105.9" y="8" width="4.2" height="32" rx="1.8900000000000001" fill="#cfd1d9" stroke="#1f283f" stroke-width="1"></rect><circle cx="108" cy="8" r="2.3100000000000005" fill="#b7c5e2"></circle></svg>
