<svg viewBox="0 0 200 200"><path d="M 40 76 L 48.28 74.86 L 56.56 73.66 L 64.84 71.47 L 73.12 69.28 L 73.12 122.16 L 64.84 119 L 56.56 115.85 L 48.28 114.32 L 40 113.2 Z" fill="#2b374f" stroke="#f4f6ff" stroke-width="1.2" opacity="0.6" stroke-linejoin="round"></path><path d="M 73.12 69.28 L 85.84 66.2 L 98.56 65.6 L 111.28 69.84 L 124 72.21 L 124 118 L 111.28 121.42 L 98.56 124.84 L 85.84 124.47 L 73.12 122.16 Z" fill="#323f5c" stroke="#f4f6ff" stroke-width="1.2" opacity="0.6" stroke-linejoin="round"></path><path d="M 124 72.21 L 133 73.87 L 142 75.29 L 151 76.64 L 160 78 L 160 117.6 L 151 117.69 L 142 117.79 L 133 117.9 L 124 118 Z" fill="#384768" stroke="#f4f6ff" stroke-width="1.2" opacity="0.6" stroke-linejoin="round"></path><path d="M 59.8 115.3 Q 64.3 126 77.8 113.5 L 66.1 109.9 Z" fill="#1f283f" stroke="#f4f6ff" stroke-width="1.2" opacity="0.65"></path><path d="M 40 76 L 52 74.34 L 64 71.69 L 76 68.58 L 88 65.67 L 100 66.08 L 112 70.01 L 124 72.21 L 136 74.38 L 148 76.19 L 160 78 L 160 117.6 L 148 117.73 L 136 117.86 L 124 118 L 112 121.23 L 100 124.45 L 88 124.87 L 76 122.68 L 64 118.68 L 52 114.82 L 40 113.2 Z" fill="none" stroke="#f4f6ff" stroke-width="1.8"></path><polygon points="108 90.95 114.8 92.255 139.28 103.16 140.3 110.525 119.56 112.7 106.3 126.185" fill="#7a94c4" stroke="#1f283f" stroke-width="1.6" opacity="0.85" stroke-linejoin="round"></polygon><polyline points="108 90.95 114.8 92.255 139.28 103.16" fill="none" stroke="#f4f6ff" stroke-width="2" opacity="0.85" stroke-linejoin="round" stroke-linecap="round"></polyline><rect x="30.4" y="85" width="9.6" height="14" rx="3.5" fill="#6e85b0" stroke="#1f283f" stroke-width="1.2"></rect><line x1="8" y1="92" x2="42" y2="90.6" stroke="#1f283f" stroke-width="2.2" stroke-linecap="round"></line><circle cx="8" cy="92" r="3.5" fill="#c3c5cc"></circle><rect x="30.4" y="95" width="9.6" height="14" rx="3.5" fill="#6e85b0" stroke="#1f283f" stroke-width="1.2"></rect><line x1="8" y1="102" x2="42" y2="100.6" stroke="#1f283f" stroke-width="2.2" stroke-linecap="round"></line><circle cx="8" cy="102" r="3.5" fill="#c3c5cc"></circle></svg>
