# Extracted component 'justice__2' from 'justigue league flying vehicle.obj'
mtllib justigue_league_flying_vehicle.mtl
o justice__2
v -0.141916 96.8371 182.63
v 7.25466 98.2774 166.861
v 5.85944 104.2 154.234
v -0.141916 103.318 166.408
v -6.14328 104.2 154.234
v -7.53796 98.2774 166.861
v -2.93401 137.694 -11.1222
v -0.141916 137.745 -11.4443
v -0.141916 135.313 -35.1445
v -2.97933 135.264 -34.8169
v 2.6507 137.694 -11.1222
v 2.69602 135.264 -34.8169
v -36.5462 127.487 -123.123
v -35.5516 127.706 -125.309
v -38.1604 126.444 -127.493
v -39.6262 126.122 -124.271
v -34.0024 128.046 -127.044
v -35.8774 126.944 -130.049
v -32.0505 128.474 -128.157
v -29.8868 128.948 -128.541
v -29.8115 128.276 -132.256
v -33.0005 127.576 -131.691
v -27.7231 129.423 -128.157
v -26.6225 128.976 -131.691
v -25.7711 129.852 -127.044
v -23.7458 129.608 -130.049
v -24.222 130.192 -125.309
v -21.4628 130.108 -127.493
v -23.2274 130.409 -123.123
v -19.997 130.43 -124.271
v -22.8848 130.485 -120.7
v -19.4919 130.541 -120.7
v -19.997 130.43 -117.129
v -23.2274 130.409 -118.277
v -21.4628 130.108 -113.907
v -24.222 130.192 -116.091
v -23.7458 129.608 -111.351
v -25.7711 129.852 -114.356
v -29.8115 128.276 -109.143
v -26.6225 128.976 -109.709
v -27.7231 129.423 -113.242
v -29.8868 128.948 -112.859
v -32.0505 128.474 -113.242
v -33.0005 127.576 -109.709
v -34.0024 128.046 -114.356
v -35.8772 126.944 -111.351
v -35.5516 127.706 -116.091
v -38.1604 126.444 -113.907
v -36.5462 127.487 -118.277
v -39.6262 126.122 -117.129
v -36.889 127.413 -120.7
v -40.1313 126.011 -120.7
v -30.1984 129.127 -120.803
v -30.1559 129.136 -120.897
v -30.0896 129.15 -120.971
v -30.0063 129.169 -121.019
v -29.9138 129.19 -121.035
v -29.8213 129.209 -121.019
v -29.7378 129.227 -120.971
v -29.6717 129.243 -120.897
v -29.6292 129.252 -120.803
v -29.6145 129.255 -120.7
v -29.6292 129.252 -120.596
v -29.6717 129.243 -120.503
v -29.7378 129.227 -120.429
v -29.8213 129.209 -120.381
v -29.9138 129.19 -120.365
v -30.0063 129.169 -120.381
v -30.0896 129.15 -120.429
v -30.1559 129.136 -120.503
v -30.1984 129.127 -120.596
v -30.2129 129.123 -120.7
v -32.5616 128.352 -128.595
v -33.3035 127.652 -131.354
v -34.086 128.018 -127.725
v -35.55 127.159 -130.073
v -26.3502 129.173 -110.036
v -27.2101 129.522 -112.797
v -25.6848 129.857 -113.668
v -24.1023 129.666 -111.319
v -72.6807 111.664 -167.157
v -71.8808 108.113 -167.157
v -83.0082 105.541 -159.678
v -83.4466 108.657 -159.678
v -75.9786 111.832 -160.564
v -85.2551 108.75 -156.063
v -87.28 104.332 -155.123
v -87.5512 106.258 -155.123
v -88.6695 106.316 -152.888
v 38.1602 126.444 -127.493
v 39.6259 126.122 -124.271
v 36.546 127.487 -123.123
v 35.5516 127.706 -125.309
v 35.8772 126.944 -130.049
v 34.0025 128.046 -127.044
v 33.0005 127.576 -131.691
v 32.0503 128.474 -128.157
v 29.8868 128.948 -128.541
v 29.8113 128.276 -132.256
v 27.7231 129.423 -128.157
v 26.6224 128.976 -131.691
v 25.771 129.852 -127.044
v 23.7455 129.608 -130.049
v 24.2218 130.192 -125.309
v 21.4625 130.108 -127.493
v 23.2274 130.409 -123.123
v 19.9968 130.43 -124.271
v 22.8844 130.485 -120.7
v 19.4916 130.541 -120.7
v 23.2274 130.409 -118.277
v 19.9968 130.43 -117.129
v 24.2218 130.192 -116.091
v 21.4625 130.108 -113.907
v 25.771 129.852 -114.356
v 23.7455 129.608 -111.351
v 27.7231 129.423 -113.242
v 29.8868 128.948 -112.859
v 29.8113 128.276 -109.143
v 26.6224 128.976 -109.709
v 32.0503 128.474 -113.242
v 33.0005 127.576 -109.709
v 34.0025 128.046 -114.356
v 35.8772 126.944 -111.351
v 35.5516 127.706 -116.091
v 38.1602 126.444 -113.907
v 36.546 127.487 -118.277
v 39.6259 126.122 -117.129
v 36.889 127.413 -120.7
v 40.1311 126.011 -120.7
v 30.198 129.127 -120.803
v 30.1559 129.136 -120.897
v 30.0892 129.15 -120.971
v 30.0063 129.169 -121.019
v 29.9135 129.19 -121.035
v 29.8212 129.209 -121.019
v 29.7377 129.227 -120.971
v 29.6715 129.243 -120.897
v 29.6289 129.252 -120.803
v 29.6142 129.255 -120.7
v 29.6289 129.252 -120.596
v 29.6715 129.243 -120.503
v 29.7377 129.227 -120.429
v 29.8212 129.209 -120.381
v 29.9135 129.19 -120.365
v 30.0063 129.169 -120.381
v 30.0892 129.15 -120.429
v 30.1559 129.136 -120.503
v 30.198 129.127 -120.596
v 30.2128 129.123 -120.7
v 33.3035 127.652 -131.354
v 32.5614 128.352 -128.595
v 34.086 128.018 -127.725
v 35.55 127.159 -130.073
v 27.2099 129.522 -112.797
v 26.3502 129.173 -110.036
v 25.6846 129.857 -113.668
v 24.1022 129.666 -111.319
v 81.3559 103.658 -157.974
v 81.7948 106.776 -157.974
v 71.0192 109.786 -165.46
v 70.2187 106.232 -165.46
v 83.6052 106.869 -154.356
v 74.3201 109.957 -158.861
v 85.6315 102.448 -153.415
v 85.9035 104.376 -153.415
v 87.0224 104.434 -151.178
vt 0 1
vt 0 1
vt 0 1
vt 0 1
vt 0 1
vt 0 1
vt 0 1
vt 0 1
vt 0 1
vt 0 1
vt 0 1
vt 0 1
vt 0 1
vt 0 1
vt 0 1
vt 0 1
vt 0 1
vt 0 1
vt 0 1
vt 0 1
vt 0 1
vt 0 1
vt 0 1
vt 0 1
vt 0 1
vt 0 1
vt 0 1
vt 0 1
vt 0 1
vt 0 1
vt 0 1
vt 0 1
vt 0 1
vt 0 1
vt 0 1
vt 0 1
vt 0 1
vt 0 1
vt 0 1
vt 0 1
vt 0 1
vt 0 1
vt 0 1
vt 0 1
vt 0 1
vt 0 1
vt 0 1
vt 0 1
vt 0 1
vt 0 1
vt 0 1
vt 0 1
vt 0 1
vt 0 1
vt 0 1
vt 0 1
vt 0 1
vt 0 1
vt 0 1
vt 0 1
vt 0 1
vt 0 1
vt 0 1
vt 0 1
vt 0 1
vt 0 1
vt 0 1
vt 0 1
vt 0 1
vt 0 1
vt 0 1
vt 0 1
vt 0 1
vt 0 1
vt 0 1
vt 0 1
vt 0 1
vt 0 1
vt 0 1
vt 0 1
vt 0 1
vt 0 1
vt 0 1
vt 0 1
vt 0 1
vt 0 1
vt 0 1
vt 0 1
vt 0 1
vt 0 1
vt 0 1
vt 0 1
vt 0 1
vt 0 1
vt 0 1
vt 0 1
vt 0 1
vt 0 1
vt 0 1
vt 0 1
vt 0 1
vt 0 1
vt 0 1
vt 0 1
vt 0 1
vt 0 1
vt 0 1
vt 0 1
vt 0 1
vt 0 1
vt 0 1
vt 0 1
vt 0 1
vt 0 1
vt 0 1
vt 0 1
vt 0 1
vt 0 1
vt 0 1
vt 0 1
vt 0 1
vt 0 1
vt 0 1
vt 0 1
vt 0 1
vt 0 1
vt 0 1
vt 0 1
vt 0 1
vt 0 1
vt 0 1
vt 0 1
vt 0 1
vt 0 1
vt 0 1
vt 0 1
vt 0 1
vt 0 1
vt 0 1
vt 0 1
vt 0 1
vt 0 1
vt 0 1
vt 0 1
vt 0 1
vt 0 1
vt 0 1
vt 0 1
vt 0 1
vt 0 1
vt 0 1
vt 0 1
vt 0 1
vt 0 1
vt 0 1
vt 0 1
vt 0 1
vt 0 1
vt 0 1
vt 0 1
vt 0 1
vt 0 1
vt 0 1
vt 0 1
vt 0 1
vt 0 1
vn -1.41052e-05 0.927934 0.369591
vn 0.517234 0.793596 0.315109
vn 0.520429 0.791458 0.31523
vn 3.50116e-08 0.927495 0.370556
vn -0.520453 0.791442 0.315231
vn -0.517281 0.793565 0.315111
vn -0.0293825 0.99267 -0.101794
vn 0.00965226 0.993612 -0.101907
vn -0.00994883 0.993607 -0.101907
vn -0.0289351 0.992688 -0.101743
vn 0.0298126 0.992663 -0.101739
vn 0.029377 0.99267 -0.101793
vn -0.316796 0.9467 -0.0351143
vn -0.29962 0.950724 -0.0646792
vn -0.367156 0.924075 -0.0951229
vn -0.39026 0.918377 -0.0452317
vn -0.325706 0.94347 -0.0208256
vn -0.41463 0.905936 -0.0733226
vn -0.204067 0.973018 -0.099893
vn -0.212895 0.972593 -0.0809314
vn -0.210449 0.959523 -0.17791
vn -0.0982904 0.969493 -0.219862
vn -0.180684 0.977197 -0.101346
vn -0.141705 0.974496 -0.167467
vn -0.151254 0.983348 -0.0893673
vn -0.0889852 0.985013 -0.139995
vn -0.122412 0.989253 -0.065098
vn -0.0477778 0.992872 -0.0984301
vn -0.105542 0.992638 -0.0371461
vn -0.0231134 0.997514 -0.0468661
vn -0.0711898 0.996383 -3.42515e-08
vn -0.0165111 0.998176 3.0734e-08
vn -0.0231129 0.997514 0.0468655
vn -0.105541 0.992638 0.0371451
vn -0.0477791 0.992872 0.0984296
vn -0.122413 0.989253 0.0650983
vn 0.0436487 0.996038 0.0515631
vn -0.131007 0.990008 0.0317757
vn -0.210449 0.959523 0.177914
vn -0.309508 0.925483 0.213513
vn -0.220449 0.96948 0.0995666
vn -0.212895 0.972593 0.0809325
vn -0.24503 0.963177 0.10039
vn -0.278467 0.944918 0.165387
vn -0.274363 0.956543 0.0870598
vn -0.328857 0.933217 0.136845
vn -0.299619 0.950724 0.0646843
vn -0.367151 0.924077 0.0951274
vn -0.316796 0.9467 0.0351138
vn -0.390261 0.918377 0.0452311
vn -0.34768 0.936458 -3.49381e-08
vn -0.396171 0.91634 2.98142e-08
vn -0.24515 0.968242 -0.0118483
vn -0.237979 0.969844 -0.0223766
vn -0.234381 0.970611 -0.0266634
vn -0.228407 0.971937 -0.0300191
vn -0.21265 0.974865 -0.0322074
vn -0.199376 0.978295 -0.0303406
vn -0.1962 0.978993 -0.0284525
vn -0.189715 0.980454 -0.0212612
vn -0.181016 0.982265 -0.0109043
vn -0.179883 0.981968 -1.06778e-06
vn -0.181016 0.982265 0.0109036
vn -0.189716 0.980453 0.0212622
vn -0.196202 0.978993 0.0284531
vn -0.199375 0.978295 0.0303409
vn -0.21265 0.974865 0.0322076
vn -0.228408 0.971937 0.0300194
vn -0.234379 0.970612 0.026664
vn -0.237978 0.969844 0.0223781
vn -0.245149 0.968243 0.0118491
vn -0.248394 0.966913 -3.33434e-07
vn -0.125041 0.982188 -0.127774
vn -0.0243373 0.968907 -0.23926
vn -0.387719 0.919906 0.00964846
vn -0.543657 0.836661 0.0325627
vn -0.372083 0.897537 0.229353
vn -0.290597 0.946862 0.125139
vn 0.0382294 0.998302 -0.0119863
vn 0.157684 0.985433 -0.0260067
vn -0.594877 0.274421 -0.753466
vn -0.533569 -0.120185 -0.835157
vn -0.602945 -0.0999687 -0.790191
vn -0.692168 0.399277 -0.598565
vn -0.403073 0.885346 -0.224316
vn -0.650823 0.676381 -0.342988
vn -0.711099 -0.100094 -0.693503
vn -0.779944 0.347882 -0.519712
vn -0.74484 0.540715 -0.386601
vn -0.367175 -0.924068 0.0951185
vn -0.390278 -0.918369 0.0452446
vn -0.31678 -0.946703 0.0351838
vn -0.299716 -0.950701 0.0645644
vn -0.448223 -0.890819 0.0468161
vn -0.320999 -0.944887 0.0345051
vn -0.134121 -0.966834 0.209509
vn -0.198504 -0.974955 0.089441
vn -0.215363 -0.969723 0.105288
vn -0.200638 -0.962175 0.178131
vn -0.180679 -0.977198 0.101347
vn -0.141699 -0.974496 0.167472
vn -0.151251 -0.983348 0.0893692
vn -0.0889802 -0.985013 0.139998
vn -0.122379 -0.98926 0.0650569
vn -0.0477783 -0.992872 0.0984325
vn -0.105547 -0.992637 0.0371482
vn -0.0231122 -0.997514 0.0468654
vn -0.0711892 -0.996383 -2.6794e-07
vn -0.016511 -0.998176 -1.84404e-07
vn -0.105547 -0.992637 -0.0371476
vn -0.0231127 -0.997514 -0.0468654
vn -0.122379 -0.98926 -0.0650574
vn -0.0477781 -0.992872 -0.0984317
vn -0.0949281 -0.993499 -0.0245564
vn 0.0044633 -0.995955 -0.0779164
vn -0.220421 -0.969487 -0.0995686
vn -0.215361 -0.969723 -0.105289
vn -0.200639 -0.962175 -0.178134
vn -0.309519 -0.925478 -0.213517
vn -0.242579 -0.966036 -0.075762
vn -0.268763 -0.946604 -0.168325
vn -0.274236 -0.956572 -0.0871386
vn -0.328865 -0.933214 -0.136845
vn -0.299716 -0.950701 -0.0645652
vn -0.367176 -0.924068 -0.0951184
vn -0.316781 -0.946703 -0.0351836
vn -0.390278 -0.918369 -0.0452445
vn -0.347688 -0.936455 -1.30337e-07
vn -0.39619 -0.916332 -1.77954e-07
vn -0.245273 -0.968212 0.0117555
vn -0.237917 -0.969861 0.022309
vn -0.234419 -0.9706 0.0267361
vn -0.232855 -0.970375 0.0277678
vn -0.21458 -0.975037 0.0315011
vn -0.199496 -0.97827 0.0303335
vn -0.196199 -0.978993 0.0284511
vn -0.189652 -0.980468 0.0211772
vn -0.180959 -0.982277 0.0108288
vn -0.179893 -0.981966 -5.59233e-08
vn -0.180959 -0.982277 -0.0108293
vn -0.189654 -0.980467 -0.0211788
vn -0.196199 -0.978993 -0.0284515
vn -0.199494 -0.978271 -0.0303332
vn -0.214579 -0.975037 -0.0315006
vn -0.232858 -0.970374 -0.0277666
vn -0.234418 -0.9706 -0.0267364
vn -0.237915 -0.969861 -0.0223109
vn -0.245272 -0.968212 -0.0117566
vn -0.248317 -0.966932 -1.79622e-08
vn -0.024336 -0.968907 0.239259
vn -0.0263264 -0.968924 0.238981
vn -0.543925 -0.836479 -0.0327784
vn -0.544528 -0.836059 -0.0334373
vn -0.290596 -0.946861 -0.12515
vn -0.372243 -0.897466 -0.22937
vn -0.0225095 -0.998055 0.0048083
vn 0.158782 -0.985233 0.0269148
vn -0.602939 0.0999986 0.790192
vn -0.692179 -0.399151 0.598636
vn -0.594902 -0.274298 0.75349
vn -0.533589 0.120176 0.835146
vn -0.650837 -0.676373 0.342975
vn -0.403313 -0.885179 0.224545
vn -0.711043 0.100197 0.693545
vn -0.779922 -0.347915 0.51972
vn -0.744811 -0.540865 0.386448
g justice__1
usemtl material_1
f 1/1/1 2/2/2 3/3/3
f 3/3/3 4/4/4 1/1/1
f 1/1/1 4/4/4 5/5/5
f 5/5/5 6/6/6 1/1/1
f 7/7/7 8/8/8 9/9/9
f 9/9/9 10/10/10 7/7/7
f 8/8/8 11/11/11 12/12/12
f 12/12/12 9/9/9 8/8/8
f 13/13/13 14/14/14 15/15/15
f 15/15/15 16/16/16 13/13/13
f 14/14/14 17/17/17 18/18/18
f 18/18/18 15/15/15 14/14/14
f 19/19/19 20/20/20 21/21/21
f 21/21/21 22/22/22 19/19/19
f 23/23/23 24/24/24 21/21/21
f 21/21/21 20/20/20 23/23/23
f 25/25/25 26/26/26 24/24/24
f 24/24/24 23/23/23 25/25/25
f 27/27/27 28/28/28 26/26/26
f 26/26/26 25/25/25 27/27/27
f 29/29/29 30/30/30 28/28/28
f 28/28/28 27/27/27 29/29/29
f 31/31/31 32/32/32 30/30/30
f 30/30/30 29/29/29 31/31/31
f 33/33/33 32/32/32 31/31/31
f 31/31/31 34/34/34 33/33/33
f 35/35/35 33/33/33 34/34/34
f 34/34/34 36/36/36 35/35/35
f 37/37/37 35/35/35 36/36/36
f 36/36/36 38/38/38 37/37/37
f 39/39/39 40/40/40 41/41/41
f 41/41/41 42/42/42 39/39/39
f 39/39/39 42/42/42 43/43/43
f 43/43/43 44/44/44 39/39/39
f 44/44/44 43/43/43 45/45/45
f 45/45/45 46/46/46 44/44/44
f 46/46/46 45/45/45 47/47/47
f 47/47/47 48/48/48 46/46/46
f 48/48/48 47/47/47 49/49/49
f 49/49/49 50/50/50 48/48/48
f 50/50/50 49/49/49 51/51/51
f 51/51/51 52/52/52 50/50/50
f 51/51/51 13/13/13 16/16/16
f 16/16/16 52/52/52 51/51/51
f 53/53/53 54/54/54 14/14/14
f 14/14/14 13/13/13 53/53/53
f 54/54/54 55/55/55 17/17/17
f 17/17/17 14/14/14 54/54/54
f 55/55/55 56/56/56 19/19/19
f 19/19/19 17/17/17 55/55/55
f 56/56/56 57/57/57 20/20/20
f 20/20/20 19/19/19 56/56/56
f 58/58/58 23/23/23 20/20/20
f 20/20/20 57/57/57 58/58/58
f 59/59/59 25/25/25 23/23/23
f 23/23/23 58/58/58 59/59/59
f 60/60/60 27/27/27 25/25/25
f 25/25/25 59/59/59 60/60/60
f 61/61/61 29/29/29 27/27/27
f 27/27/27 60/60/60 61/61/61
f 62/62/62 31/31/31 29/29/29
f 29/29/29 61/61/61 62/62/62
f 34/34/34 31/31/31 62/62/62
f 62/62/62 63/63/63 34/34/34
f 36/36/36 34/34/34 63/63/63
f 63/63/63 64/64/64 36/36/36
f 38/38/38 36/36/36 64/64/64
f 64/64/64 65/65/65 38/38/38
f 41/41/41 38/38/38 65/65/65
f 65/65/65 66/66/66 41/41/41
f 42/42/42 41/41/41 66/66/66
f 66/66/66 67/67/67 42/42/42
f 42/42/42 67/67/67 68/68/68
f 68/68/68 43/43/43 42/42/42
f 43/43/43 68/68/68 69/69/69
f 69/69/69 45/45/45 43/43/43
f 45/45/45 69/69/69 70/70/70
f 70/70/70 47/47/47 45/45/45
f 47/47/47 70/70/70 71/71/71
f 71/71/71 49/49/49 47/47/47
f 49/49/49 71/71/71 72/72/72
f 72/72/72 51/51/51 49/49/49
f 72/72/72 53/53/53 13/13/13
f 13/13/13 51/51/51 72/72/72
f 73/73/73 19/19/19 22/22/22
f 22/22/22 74/74/74 73/73/73
f 17/17/17 19/19/19 73/73/73
f 73/73/73 75/75/75 17/17/17
f 17/17/17 75/75/75 76/76/76
f 76/76/76 18/18/18 17/17/17
f 40/40/40 77/77/77 78/78/78
f 78/78/78 41/41/41 40/40/40
f 78/78/78 79/79/79 38/38/38
f 38/38/38 41/41/41 78/78/78
f 79/79/79 80/80/80 37/37/37
f 37/37/37 38/38/38 79/79/79
f 81/81/81 82/82/82 83/83/83
f 83/83/83 84/84/84 81/81/81
f 85/85/85 81/81/81 84/84/84
f 84/84/84 86/86/86 85/85/85
f 84/84/84 83/83/83 87/87/87
f 87/87/87 88/88/88 84/84/84
f 86/86/86 84/84/84 88/88/88
f 88/88/88 89/89/89 86/86/86
f 90/90/90 91/91/91 92/92/92
f 92/92/92 93/93/93 90/90/90
f 94/94/94 90/90/90 93/93/93
f 93/93/93 95/95/95 94/94/94
f 96/96/96 97/97/97 98/98/98
f 98/98/98 99/99/99 96/96/96
f 99/99/99 98/98/98 100/100/100
f 100/100/100 101/101/101 99/99/99
f 101/101/101 100/100/100 102/102/102
f 102/102/102 103/103/103 101/101/101
f 103/103/103 102/102/102 104/104/104
f 104/104/104 105/105/105 103/103/103
f 105/105/105 104/104/104 106/106/106
f 106/106/106 107/107/107 105/105/105
f 107/107/107 106/106/106 108/108/108
f 108/108/108 109/109/109 107/107/107
f 108/108/108 110/110/110 111/111/111
f 111/111/111 109/109/109 108/108/108
f 110/110/110 112/112/112 113/113/113
f 113/113/113 111/111/111 110/110/110
f 112/112/112 114/114/114 115/115/115
f 115/115/115 113/113/113 112/112/112
f 116/116/116 117/117/117 118/118/118
f 118/118/118 119/119/119 116/116/116
f 117/117/117 120/120/120 121/121/121
f 121/121/121 118/118/118 117/117/117
f 122/122/122 123/123/123 121/121/121
f 121/121/121 120/120/120 122/122/122
f 124/124/124 125/125/125 123/123/123
f 123/123/123 122/122/122 124/124/124
f 126/126/126 127/127/127 125/125/125
f 125/125/125 124/124/124 126/126/126
f 128/128/128 129/129/129 127/127/127
f 127/127/127 126/126/126 128/128/128
f 91/91/91 129/129/129 128/128/128
f 128/128/128 92/92/92 91/91/91
f 93/93/93 92/92/92 130/130/130
f 130/130/130 131/131/131 93/93/93
f 95/95/95 93/93/93 131/131/131
f 131/131/131 132/132/132 95/95/95
f 97/97/97 95/95/95 132/132/132
f 132/132/132 133/133/133 97/97/97
f 97/97/97 133/133/133 134/134/134
f 134/134/134 98/98/98 97/97/97
f 98/98/98 134/134/134 135/135/135
f 135/135/135 100/100/100 98/98/98
f 100/100/100 135/135/135 136/136/136
f 136/136/136 102/102/102 100/100/100
f 102/102/102 136/136/136 137/137/137
f 137/137/137 104/104/104 102/102/102
f 104/104/104 137/137/137 138/138/138
f 138/138/138 106/106/106 104/104/104
f 106/106/106 138/138/138 139/139/139
f 139/139/139 108/108/108 106/106/106
f 139/139/139 140/140/140 110/110/110
f 110/110/110 108/108/108 139/139/139
f 140/140/140 141/141/141 112/112/112
f 112/112/112 110/110/110 140/140/140
f 141/141/141 142/142/142 114/114/114
f 114/114/114 112/112/112 141/141/141
f 142/142/142 143/143/143 116/116/116
f 116/116/116 114/114/114 142/142/142
f 143/143/143 144/144/144 117/117/117
f 117/117/117 116/116/116 143/143/143
f 144/144/144 145/145/145 120/120/120
f 120/120/120 117/117/117 144/144/144
f 146/146/146 122/122/122 120/120/120
f 120/120/120 145/145/145 146/146/146
f 147/147/147 124/124/124 122/122/122
f 122/122/122 146/146/146 147/147/147
f 148/148/148 126/126/126 124/124/124
f 124/124/124 147/147/147 148/148/148
f 149/149/149 128/128/128 126/126/126
f 126/126/126 148/148/148 149/149/149
f 92/92/92 128/128/128 149/149/149
f 149/149/149 130/130/130 92/92/92
f 96/96/96 150/150/150 151/151/151
f 151/151/151 97/97/97 96/96/96
f 152/152/152 153/153/153 94/94/94
f 94/94/94 95/95/95 152/152/152
f 154/154/154 116/116/116 119/119/119
f 119/119/119 155/155/155 154/154/154
f 114/114/114 116/116/116 154/154/154
f 154/154/154 156/156/156 114/114/114
f 114/114/114 156/156/156 157/157/157
f 157/157/157 115/115/115 114/114/114
f 158/158/158 159/159/159 160/160/160
f 160/160/160 161/161/161 158/158/158
f 159/159/159 162/162/162 163/163/163
f 163/163/163 160/160/160 159/159/159
f 164/164/164 165/165/165 159/159/159
f 159/159/159 158/158/158 164/164/164
f 165/165/165 166/166/166 162/162/162
f 162/162/162 159/159/159 165/165/165

