<svg viewBox="0 0 200 200"><path d="M 40 76 L 47.21 74.32 L 54.41 72.64 L 61.62 70.96 L 68.82 69.28 L 68.82 122.16 L 61.62 119.92 L 54.41 117.68 L 47.21 115.44 L 40 113.2 Z" fill="#2b374f" stroke="#f4f6ff" stroke-width="1.2" opacity="0.45" stroke-linejoin="round"></path><path d="M 68.82 69.28 L 79.86 67.06 L 90.89 64.83 L 101.93 66.72 L 112.96 70.17 L 124 72.1 L 124 118 L 112.96 120.97 L 101.93 123.93 L 90.89 125.49 L 79.86 123.83 L 68.82 122.16 Z" fill="#323f5c" stroke="#f4f6ff" stroke-width="1.2" opacity="0.45" stroke-linejoin="round"></path><path d="M 124 72.1 L 133 73.68 L 142 75.15 L 151 76.58 L 160 78 L 160 117.6 L 151 117.72 L 142 117.81 L 133 117.91 L 124 118 Z" fill="#42547a" stroke="#f4f6ff" stroke-width="2" opacity="1" stroke-linejoin="round"></path><path d="M 59.8 115.3 Q 64.3 126 77.8 113.5 L 66.1 109.9 Z" fill="#1f283f" stroke="#f4f6ff" stroke-width="1.2" opacity="0.65"></path><path d="M 40 76 L 52 73.2 L 64 70.4 L 76 67.83 L 88 65.42 L 100 66.08 L 112 70 L 124 72.1 L 136 74.2 L 148 76.1 L 160 78 L 160 117.6 L 148 117.75 L 136 117.88 L 124 118 L 112 121.23 L 100 124.45 L 88 125.06 L 76 123.24 L 64 120.66 L 52 116.93 L 40 113.2 Z" fill="none" stroke="#f4f6ff" stroke-width="1.8"></path></svg>
