<svg viewBox="0 0 200 200"><path d="M 40 76 L 47.57 74.32 L 55.14 72.64 L 62.72 70.96 L 70.29 69.28 L 70.29 122.16 L 62.72 119.92 L 55.14 117.68 L 47.57 115.44 L 40 113.2 Z" fill="#2b374f" stroke="#f4f6ff" stroke-width="1.2" opacity="0.45" stroke-linejoin="round"></path><path d="M 70.29 69.28 L 83.72 66.41 L 97.14 65.13 L 110.57 69.6 L 124 72.28 L 124 118 L 110.57 121.61 L 97.14 125.22 L 83.72 124.31 L 70.29 122.16 Z" fill="#323f5c" stroke="#f4f6ff" stroke-width="1.2" opacity="0.45" stroke-linejoin="round"></path><path d="M 124 72.28 L 133 73.97 L 142 75.35 L 151 76.67 L 160 78 L 160 117.6 L 151 117.67 L 142 117.76 L 133 117.88 L 124 118 Z" fill="#42547a" stroke="#f4f6ff" stroke-width="2" opacity="1" stroke-linejoin="round"></path><path d="M 59.8 115.3 Q 64.3 126 77.8 113.5 L 66.1 109.9 Z" fill="#1f283f" stroke="#f4f6ff" stroke-width="1.2" opacity="0.65"></path><path d="M 40 76 L 52 73.34 L 64 70.68 L 76 68.06 L 88 65.49 L 100 66.08 L 112 70.01 L 124 72.28 L 136 74.47 L 148 76.23 L 160 78 L 160 117.6 L 148 117.7 L 136 117.84 L 124 118 L 112 121.23 L 100 124.45 L 88 125 L 76 123.08 L 64 120.3 L 52 116.75 L 40 113.2 Z" fill="none" stroke="#f4f6ff" stroke-width="1.8"></path></svg>
