<svg viewBox="0 0 200 200"><path d="M 40 76 L 47.32 74.32 L 54.65 72.64 L 61.97 70.96 L 69.3 69.28 L 69.3 122.16 L 61.97 119.92 L 54.65 117.68 L 47.32 115.44 L 40 113.2 Z" fill="#2b374f" stroke="#f4f6ff" stroke-width="1.2" opacity="0.45" stroke-linejoin="round"></path><path d="M 69.3 69.28 L 80.24 67.03 L 91.18 64.79 L 102.12 66.79 L 113.06 70.2 L 124 72.16 L 124 118 L 113.06 120.94 L 102.12 123.88 L 91.18 125.53 L 80.24 123.84 L 69.3 122.16 Z" fill="#323f5c" stroke="#f4f6ff" stroke-width="1.2" opacity="0.45" stroke-linejoin="round"></path><path d="M 124 72.16 L 133 73.77 L 142 75.22 L 151 76.61 L 160 78 L 160 117.6 L 151 117.74 L 142 117.83 L 133 117.91 L 124 118 Z" fill="#42547a" stroke="#f4f6ff" stroke-width="2" opacity="1" stroke-linejoin="round"></path><path d="M 59.8 115.3 Q 64.3 126 77.8 113.5 L 66.1 109.9 Z" fill="#1f283f" stroke="#f4f6ff" stroke-width="1.2" opacity="0.65"></path><path d="M 40 76 L 52 73.25 L 64 70.49 L 76 67.9 L 88 65.44 L 100 66.08 L 112 70.01 L 124 72.16 L 136 74.29 L 148 76.15 L 160 78 L 160 117.6 L 148 117.77 L 136 117.88 L 124 118 L 112 121.23 L 100 124.45 L 88 125.04 L 76 123.19 L 64 120.54 L 52 116.87 L 40 113.2 Z" fill="none" stroke="#f4f6ff" stroke-width="1.8"></path></svg>
