<svg viewBox="0 0 200 200"><path d="M 100 14 L 130.24 76 Q 126.6 86.61 122.96 93.68 Q 124.92 104.91 126.88 112.4 Q 126.32 121.76 125.76 128 Q 127.44 134.48 129.12 138.8 Q 124.64 147.01 120.16 152.48 Q 118.48 158.5 116.8 160 Q 100 182 83.2 160 Q 81.52 155.49 79.84 152.48 Q 75.36 144.27 70.88 138.8 Q 72.56 132.32 74.24 128 Q 73.68 118.64 73.12 112.4 Q 75.08 101.17 77.04 93.68 L 69.76 76 L 100 14 Z" fill="#2b374f" stroke="#f4f6ff" stroke-width="1.4" opacity="0.45" stroke-linejoin="round"></path><path d="M 69.76 76 L 130.24 76 Q 126.6 86.61 122.96 93.68 Q 124.92 104.91 126.88 112.4 Q 126.32 121.76 125.76 128 L 74.24 128 Q 73.68 118.64 73.12 112.4 Q 75.08 101.17 77.04 93.68 Q 73.4 83.07 69.76 76 Z" fill="#42547a" stroke="#f4f6ff" stroke-width="2.2" opacity="1" stroke-linejoin="round"></path><path d="M 74.24 128 L 125.76 128 Q 127.44 134.48 129.12 138.8 Q 124.64 147.01 120.16 152.48 Q 118.48 158.5 116.8 160 Q 100 182 83.2 160 Q 81.52 155.49 79.84 152.48 Q 75.36 144.27 70.88 138.8 Q 72.56 132.32 74.24 128 Z" fill="#384768" stroke="#f4f6ff" stroke-width="1.4" opacity="0.45" stroke-linejoin="round"></path><path d="M 83.2 58 L 116.8 58 M 83.2 79 L 116.8 79 M 83.2 100 L 116.8 100 M 83.2 121 L 116.8 121 M 83.2 142 L 116.8 142" fill="none" stroke="#f4f6ff" stroke-width="1" opacity="0.55"></path><path d="M 100 14 L 130.24 76 Q 126.6 86.61 122.96 93.68 Q 124.92 104.91 126.88 112.4 Q 126.32 121.76 125.76 128 Q 127.44 134.48 129.12 138.8 Q 124.64 147.01 120.16 152.48 Q 118.48 158.5 116.8 160 Q 100 182 83.2 160 Q 81.52 155.49 79.84 152.48 Q 75.36 144.27 70.88 138.8 Q 72.56 132.32 74.24 128 Q 73.68 118.64 73.12 112.4 Q 75.08 101.17 77.04 93.68 L 69.76 76 L 100 14 Z" fill="none" stroke="#f4f6ff" stroke-width="1.8"></path></svg>
