<svg viewBox="0 0 200 200"><path d="M 100 12 L 130.24 76 Q 127.16 86.94 124.08 94.24 Q 125.76 104.61 127.44 111.52 Q 127.44 119.01 127.44 124 Q 127.16 130.48 126.88 134.8 Q 122.68 143.01 118.48 148.48 Q 116.24 157.7 114 160 Q 100 182 86 160 Q 83.76 153.09 81.52 148.48 Q 77.32 140.27 73.12 134.8 Q 72.84 128.32 72.56 124 Q 72.56 116.51 72.56 111.52 Q 74.24 101.15 75.92 94.24 L 69.76 76 L 100 12 Z" fill="#2b374f" stroke="#f4f6ff" stroke-width="1.4" opacity="0.6" stroke-linejoin="round"></path><path d="M 69.76 76 L 130.24 76 Q 127.16 86.94 124.08 94.24 Q 125.76 104.61 127.44 111.52 Q 127.44 119.01 127.44 124 L 72.56 124 Q 72.56 116.51 72.56 111.52 Q 74.24 101.15 75.92 94.24 Q 72.84 83.3 69.76 76 Z" fill="#323f5c" stroke="#f4f6ff" stroke-width="1.4" opacity="0.6" stroke-linejoin="round"></path><path d="M 72.56 124 L 127.44 124 Q 127.16 130.48 126.88 134.8 Q 122.68 143.01 118.48 148.48 Q 116.24 157.7 114 160 Q 100 182 86 160 Q 83.76 153.09 81.52 148.48 Q 77.32 140.27 73.12 134.8 Q 72.84 128.32 72.56 124 Z" fill="#384768" stroke="#f4f6ff" stroke-width="1.4" opacity="0.6" stroke-linejoin="round"></path><path d="M 83.2 58 L 116.8 58 M 83.2 79 L 116.8 79 M 83.2 100 L 116.8 100 M 83.2 121 L 116.8 121 M 83.2 142 L 116.8 142" fill="none" stroke="#f4f6ff" stroke-width="1" opacity="0.55"></path><path d="M 100 12 L 130.24 76 Q 127.16 86.94 124.08 94.24 Q 125.76 104.61 127.44 111.52 Q 127.44 119.01 127.44 124 Q 127.16 130.48 126.88 134.8 Q 122.68 143.01 118.48 148.48 Q 116.24 157.7 114 160 Q 100 182 86 160 Q 83.76 153.09 81.52 148.48 Q 77.32 140.27 73.12 134.8 Q 72.84 128.32 72.56 124 Q 72.56 116.51 72.56 111.52 Q 74.24 101.15 75.92 94.24 L 69.76 76 L 100 12 Z" fill="none" stroke="#f4f6ff" stroke-width="1.8"></path><polygon points="72 102 18 80 34.2 132" fill="#7a94c4" stroke="#1f283f" stroke-width="1.6" opacity="0.85" stroke-linejoin="round"></polygon><polygon points="128 102 182 80 165.8 132" fill="#7a94c4" stroke="#1f283f" stroke-width="1.6" opacity="0.85" stroke-linejoin="round"></polygon><polyline points="72 102 18 80 34.2 132" fill="none" stroke="#f4f6ff" stroke-width="2.2" opacity="0.85" stroke-linejoin="round" stroke-linecap="round"></polyline><rect x="46.1" y="122.11000000000001" width="3.2" height="10" rx="1.2" fill="#5c6f93" stroke="#1f283f" stroke-width="0.9"></rect><rect x="40.7" y="107.075" width="14" height="18" rx="3.8500000000000005" fill="#6e85b0" stroke="#1f283f" stroke-width="1"></rect><polygon points="40.7 107.075 47.7 98.675 54.7 107.075" fill="#c3cfe7" stroke="#1f283f" stroke-width="1"></polygon><rect x="41.400000000000006" y="122.275" width="12.6" height="5.6000000000000005" fill="#cfd1d9" opacity="0.75"></rect><rect x="150.70000000000002" y="122.11000000000001" width="3.2" height="10" rx="1.2" fill="#5c6f93" stroke="#1f283f" stroke-width="0.9"></rect><rect x="145.3" y="107.075" width="14" height="18" rx="3.8500000000000005" fill="#6e85b0" stroke="#1f283f" stroke-width="1"></rect><polygon points="145.3 107.075 152.3 98.675 159.3 107.075" fill="#c3cfe7" stroke="#1f283f" stroke-width="1"></polygon><rect x="146" y="122.275" width="12.6" height="5.6000000000000005" fill="#cfd1d9" opacity="0.75"></rect><rect x="46.1" y="136.67000000000002" width="3.2" height="9" rx="1.2" fill="#5c6f93" stroke="#1f283f" stroke-width="0.9"></rect><rect x="41.7" y="106.275" width="12" height="16.8" rx="3.3000000000000003" fill="#6e85b0" stroke="#1f283f" stroke-width="1"></rect><polygon points="41.7 106.275 47.7 98.435 53.7 106.275" fill="#c3cfe7" stroke="#1f283f" stroke-width="1"></polygon><rect x="42.300000000000004" y="120.675" width="10.8" height="4.800000000000001" fill="#cfd1d9" opacity="0.75"></rect><rect x="150.70000000000002" y="136.67000000000002" width="3.2" height="9" rx="1.2" fill="#5c6f93" stroke="#1f283f" stroke-width="0.9"></rect><rect x="146.3" y="106.275" width="12" height="16.8" rx="3.3000000000000003" fill="#6e85b0" stroke="#1f283f" stroke-width="1"></rect><polygon points="146.3 106.275 152.3 98.435 158.3 106.275" fill="#c3cfe7" stroke="#1f283f" stroke-width="1"></polygon><rect x="146.9" y="120.675" width="10.8" height="4.800000000000001" fill="#cfd1d9" opacity="0.75"></rect></svg>
