<svg viewBox="0 0 200 200"><path d="M 40 76 L 47.45 74.32 L 54.89 72.64 L 62.34 70.96 L 69.79 69.28 L 69.79 122.16 L 62.34 119.92 L 54.89 117.68 L 47.45 115.44 L 40 113.2 Z" fill="#2b374f" stroke="#f4f6ff" stroke-width="1.2" opacity="0.25" stroke-linejoin="round"></path><path d="M 69.79 69.28 L 80.63 67.01 L 91.47 64.74 L 102.31 66.85 L 113.16 70.22 L 124 72.21 L 124 118 L 113.16 120.91 L 102.31 123.83 L 91.47 125.57 L 80.63 123.86 L 69.79 122.16 Z" fill="#323f5c" stroke="#f4f6ff" stroke-width="1.2" opacity="0.25" stroke-linejoin="round"></path><path d="M 124 72.21 L 133 73.87 L 142 75.29 L 151 76.64 L 160 78 L 160 117.6 L 151 117.69 L 142 117.79 L 133 117.9 L 124 118 Z" fill="#384768" stroke="#f4f6ff" stroke-width="1.2" opacity="0.25" stroke-linejoin="round"></path><path d="M 40 76 L 52 73.29 L 64 70.59 L 76 67.98 L 88 65.47 L 100 66.08 L 112 70.01 L 124 72.21 L 136 74.38 L 148 76.19 L 160 78 L 160 117.6 L 148 117.73 L 136 117.86 L 124 118 L 112 121.23 L 100 124.45 L 88 125.02 L 76 123.14 L 64 120.42 L 52 116.81 L 40 113.2 Z" fill="none" stroke="#f4f6ff" stroke-width="1.8"></path><polygon points="100 100 110 89.97625 150 91.04 134 109 96 115.795" fill="#7a94c4" stroke="#1f283f" stroke-width="1.6" opacity="0.95" stroke-linejoin="round"></polygon><polyline points="100 100 110 89.97625 150 91.04" fill="none" stroke="#f4f6ff" stroke-width="2" opacity="0.95" stroke-linejoin="round" stroke-linecap="round"></polyline></svg>
